<svg xmlns="http://www.w3.org/2000/svg" viewBox="0 0 95.54 90"><defs><style>.cls-1{fill:#03203f;}</style></defs><title>pot</title><g id="Calque_2" data-name="Calque 2"><g id="Calque_1-2" data-name="Calque 1"><path class="cls-1" d="M93.91,23.15a13.59,13.59,0,0,1-7.08-7,7.25,7.25,0,0,0,3.33-6.09V7.25A7.25,7.25,0,0,0,82.92,0H11.52A7.26,7.26,0,0,0,4.27,7.25v2.83a7.26,7.26,0,0,0,4.09,6.51c-.19,1-1.22,4.55-6.18,5.38L0,22.33l1.6,1.52A14,14,0,0,0,8.39,27.6V77.93A12.09,12.09,0,0,0,20.47,90H73.7A12.08,12.08,0,0,0,85.77,77.93V27.07c2.68.85,5.57.18,8.37-2.06l1.4-1.12ZM6.47,10.08V7.25a5.06,5.06,0,0,1,5.05-5h71.4a5.06,5.06,0,0,1,5,5.05v2.83a5.06,5.06,0,0,1-5,5.05H11.52A5.06,5.06,0,0,1,6.47,10.08ZM83.58,67.51h-73V36.76h73ZM73.7,87.81H20.47a9.89,9.89,0,0,1-9.88-9.88V69.69h73v8.24A9.89,9.89,0,0,1,73.7,87.81Zm9.88-53.23h-73V27.83h.16c4.28,0,8.05-2.27,10.46-4.16a5.21,5.21,0,0,1,6.14-.19l2.36,1.57a11,11,0,0,0,11.34.51l3.47-1.88a8.86,8.86,0,0,1,8-.19L57.76,26a11.08,11.08,0,0,0,10.79-.7l4.18-2.72-.6-.92.66.87a6.6,6.6,0,0,1,8.47,1.35A11.8,11.8,0,0,0,83.58,26Zm-.66-12.13a8.81,8.81,0,0,0-11.31-1.76l-4.26,2.78a8.83,8.83,0,0,1-8.63.56l-5.23-2.51a11,11,0,0,0-10,.23L40,23.63a8.79,8.79,0,0,1-9.08-.41l-2.36-1.57a7.4,7.4,0,0,0-8.72.3C16,25,10.32,27.59,4.7,23.57a9,9,0,0,0,5.69-6H85a15.65,15.65,0,0,0,6.29,6.72C88.3,26,85.48,25.41,82.92,22.45Z"/><path class="cls-1" d="M78.64,76.28a1.1,1.1,0,0,0-1.1,1.1,5.49,5.49,0,0,1-5.49,5.49H70.41a1.1,1.1,0,0,0,0,2.2h1.64a7.7,7.7,0,0,0,7.69-7.69A1.1,1.1,0,0,0,78.64,76.28Z"/><path class="cls-1" d="M59.43,82.87H40.77a1.1,1.1,0,0,0,0,2.2H59.43a1.1,1.1,0,1,0,0-2.2Z"/></g></g></svg>