<svg xmlns="http://www.w3.org/2000/svg" viewBox="0 0 124.36 226.41"><defs><style>.cls-1{fill:#03203f;}</style></defs><title>vine</title><g id="Calque_2" data-name="Calque 2"><g id="Calque_1-2" data-name="Calque 1"><path class="cls-1" d="M29.71,158.49h0a.81.81,0,0,0,.81-.78l.13-4a.82.82,0,0,0-.78-.83.81.81,0,0,0-.83.78l-.13,4A.79.79,0,0,0,29.71,158.49Z"/><path class="cls-1" d="M30.37,162.51a.81.81,0,0,0-1.6-.19,11.32,11.32,0,0,1-7.14,9.29,11,11,0,0,1-10.73-1.52l-.42-.32a.81.81,0,0,0-1,1.28l.42.32A12.65,12.65,0,0,0,17.59,174a12.9,12.9,0,0,0,12.78-11.47Z"/><path class="cls-1" d="M35,224.68H19.09V178.39a17.28,17.28,0,0,0,16-18l-2.15-46.44-17.3.1H2.51L0,159.91a17.27,17.27,0,0,0,9.16,16.18l.63.33a17.05,17.05,0,0,0,7.56,2v46.26H1.45a.87.87,0,0,0,0,1.73H35a.87.87,0,0,0,0-1.73Zm-25-50.1A15.58,15.58,0,0,1,1.73,160l2.4-44.26H15.64l15.67-.09,2.07,44.8a15.53,15.53,0,0,1-22.77,14.45Z"/><path class="cls-1" d="M117.26,64l-2.85-2.85A15.62,15.62,0,0,1,109.81,50V9.42s0,0,0-.06h.57a.81.81,0,1,0,0-1.61H87.55a.81.81,0,0,0,0,1.61h.5a.13.13,0,0,0,0,.06V47.57A17.1,17.1,0,0,1,83,59.77L79.86,62.9A24.09,24.09,0,0,0,72.76,80V204.41a19.47,19.47,0,0,0,5.74,13.86l0,.06a13,13,0,0,0,9.23,3.82h22.87a11.46,11.46,0,0,0,8.18-3.39,18.75,18.75,0,0,0,5.53-13.35V81.12A24.09,24.09,0,0,0,117.26,64ZM74.37,105.8h48.38V177H74.37ZM81,64l3.12-3.13a18.71,18.71,0,0,0,5.53-13.34V9.36H108.2s0,0,0,.06V50a17.22,17.22,0,0,0,5.08,12.25l2.85,2.86a22.46,22.46,0,0,1,6.63,16v23.07H74.37V80A22.47,22.47,0,0,1,81,64Zm36.69,153.58a9.89,9.89,0,0,1-7,2.92H87.78a11.38,11.38,0,0,1-8.09-3.35l0-.06a17.86,17.86,0,0,1-5.27-12.72V178.56h48.38v26.85A17.12,17.12,0,0,1,117.69,217.62Z"/><path class="cls-1" d="M87.55,4.62a.8.8,0,0,0,.81-.8,2.21,2.21,0,0,1,2.21-2.21h16.79a2.21,2.21,0,0,1,2.21,2.21.81.81,0,0,0,1.61,0A3.83,3.83,0,0,0,107.36,0H90.57a3.82,3.82,0,0,0-3.82,3.82A.8.8,0,0,0,87.55,4.62Z"/><path class="cls-1" d="M113.4,71.27a15.1,15.1,0,0,1,3.92,10.16v19.26a.81.81,0,0,0,1.61,0V81.43a16.74,16.74,0,0,0-4.33-11.24l-4.06-4.48a.81.81,0,0,0-1.14-.06.82.82,0,0,0-.06,1.14Z"/></g></g></svg>