<svg xmlns="http://www.w3.org/2000/svg" viewBox="0 0 432.55 93.63"><defs><style>.cls-1{fill:#fb9e1b;}</style></defs><title>Fichier 1</title><g id="Calque_2" data-name="Calque 2"><g id="Calque_1-2" data-name="Calque 1"><polygon class="cls-1" points="17.35 23.36 26.13 14.58 34.92 23.36 99.5 23.36 108.28 14.58 117.06 23.36 123.53 23.36 124.33 23.36 124.61 23.36 134.14 23.36 119.99 5.79 119.09 5.79 119.09 1.39 120.12 1.39 120.12 0 113.11 0 113.11 1.39 114.15 1.39 114.15 5.79 93.78 5.79 70.61 5.79 63.53 5.79 58.65 5.79 14.16 5.79 0 23.36 7.87 23.36 10.02 23.36 10.62 23.36 17.35 23.36"/><rect class="cls-1" x="28.69" y="76.35" width="1.94" height="2.65"/><rect class="cls-1" x="31.01" y="76.35" width="1.94" height="2.65"/><rect class="cls-1" x="28.69" y="79.33" width="1.94" height="2.8"/><rect class="cls-1" x="31.01" y="79.33" width="1.94" height="2.8"/><rect class="cls-1" x="74.18" y="76.35" width="1.94" height="2.65"/><rect class="cls-1" x="76.5" y="76.35" width="1.94" height="2.65"/><rect class="cls-1" x="74.18" y="79.33" width="1.94" height="2.8"/><rect class="cls-1" x="76.5" y="79.33" width="1.94" height="2.8"/><path class="cls-1" d="M383.88,79.87c-3.82.46-6.5,3.68-6,7.17s4.06,6,7.89,5.49,6.5-3.68,6-7.18S387.71,79.4,383.88,79.87Zm1.79,11.75a6,6,0,0,1-6.76-4.7A5.55,5.55,0,0,1,384,80.78a6,6,0,0,1,6.76,4.69A5.54,5.54,0,0,1,385.67,91.62Z"/><polygon class="cls-1" points="386.11 92.49 385.63 92.55 383.77 80.33 384.25 80.27 386.11 92.49"/><polygon class="cls-1" points="378.52 83.8 378.73 83.42 391.06 88.79 390.85 89.17 378.52 83.8"/><polygon class="cls-1" points="390.25 82.59 389.93 82.26 379.87 90.02 380.18 90.34 390.25 82.59"/><ellipse class="cls-1" cx="384.86" cy="86.25" rx="1.59" ry="1.42"/><path class="cls-1" d="M360.87,82.67a4.86,4.86,0,0,0-4.47,5.38,5.22,5.22,0,0,0,5.92,4.11,4.85,4.85,0,0,0,4.46-5.38A5.2,5.2,0,0,0,360.87,82.67Zm1.34,8.81A4.46,4.46,0,0,1,357.15,88,4.16,4.16,0,0,1,361,83.35,4.46,4.46,0,0,1,366,86.87,4.16,4.16,0,0,1,362.21,91.48Z"/><polygon class="cls-1" points="362.54 92.13 362.18 92.17 360.79 83.02 361.15 82.98 362.54 92.13"/><polygon class="cls-1" points="356.85 85.62 357.01 85.33 366.24 89.35 366.09 89.64 356.85 85.62"/><polygon class="cls-1" points="365.64 84.71 365.4 84.47 357.87 90.28 358.1 90.52 365.64 84.71"/><ellipse class="cls-1" cx="361.6" cy="87.45" rx="1.19" ry="1.07"/><path class="cls-1" d="M395.58,63.54a5.31,5.31,0,0,0-3.38-1.36l-6-.25-.37-2.43,1.49-.18-.17-1.16-4.78.58.18,1.16.77-.38.45-.23.39,2.56-28.75-1.17a6.63,6.63,0,0,0-5.64,2.6l-3.49,4.82,8.79,0,1.49,9.74-6.58.31.18,1.21.38,0,.37,3.39-.23,0,.11.76,26.73-.23,16.75-.11-.22-13.89,7.22-.51Zm-42.44,19-1.2.11-.37-3.39,1.2-.11Zm1.76,0-1.19.11-.38-3.4,1.2-.1Zm1.71-.15-1.2.11-.38-3.4,1.2-.1Zm1.8-.16-1.2.1L356.83,79l1.2-.11Zm3-4.18-3.7.06-1.47-9.66,3.71,0Zm17.22-3.83-3.44.08L375.09,72l3.45-.07Zm-3.52-2.62L375,69.29l3.45-.07.06,2.34Zm7.44,2.54-3.45.07L379,71.91l3.45-.08Zm-.07-2.7-3.45.08-.06-2.34,3.45-.07Z"/><path class="cls-1" d="M299.93,92.28h-.7c-.13,0-.16-.07-.1-.18l.19-.27a1.7,1.7,0,0,0,.26-.34,2.25,2.25,0,0,1,.54-.74,2.27,2.27,0,0,0,.22-.32c.06-.09,0-.15-.06-.22a.86.86,0,0,1-.25-.29,7.61,7.61,0,0,0-.82-1.67,10.28,10.28,0,0,1-.57-1,1.16,1.16,0,0,1-.16-.68,7.71,7.71,0,0,0-.3-2.29,1,1,0,0,1,0-.58c.08-.22.11-.46.18-.67A2.73,2.73,0,0,1,299,82a11,11,0,0,0,1.55-2c.07-.12.14-.24.22-.35a.15.15,0,0,0,0-.23c-.16-.19-.32-.37-.46-.57a1.56,1.56,0,0,1-.33-1.2c0-.32,0-.65,0-1a1.15,1.15,0,0,1,.06-.37,2.18,2.18,0,0,0-.1-1.34c-.24-.67-.53-1.32-.8-2-.42-1-.76-2.05-1.08-3.09a7.4,7.4,0,0,0-.48-1.12.82.82,0,0,0-1.19-.38,2.75,2.75,0,0,1-1.72.17,2.36,2.36,0,0,0-1,0,4.93,4.93,0,0,0-.76.28c-.12.06-.17.23-.34.24a.67.67,0,0,1-.49-.14s-.11-.05-.16-.08-.2-.08-.23-.15a3,3,0,0,1-.24-1,.74.74,0,0,1,.21-.53,11.4,11.4,0,0,1,1.17-1c.53-.42,1-.88,1.52-1.32a4.17,4.17,0,0,1,.53-.41,1.87,1.87,0,0,0,.55-.67.26.26,0,0,0,0-.17l-.33-.95a.09.09,0,0,1,0-.07c0-.07,0-.15.07-.23a1,1,0,0,1,.2.11,4.47,4.47,0,0,1,.42.45,2.61,2.61,0,0,1,.17.28.69.69,0,0,0,.12.19.24.24,0,0,0,.2,0s0-.1,0-.15-.07-.22-.09-.34-.07-.51-.09-.77a.9.9,0,0,1,.06-.22c.08,0,.19,0,.23.1a3.39,3.39,0,0,1,.6,1.2,1.26,1.26,0,0,0,.5.7,8.29,8.29,0,0,0,.93.66c.46.22.76.65,1.23.86a3.21,3.21,0,0,1,.68.56c.55.44,1.1.87,1.64,1.32.34.28.63.61,1,.88.75.59,1.52,1.16,2.3,1.72a5,5,0,0,0,.78.36c.31.13.62.27.92.43s.81.47,1.24.66a2.12,2.12,0,0,0,.75.14,6.14,6.14,0,0,0,1.6-.12c.67-.13,1.35-.22,2-.34s1.15-.26,1.73-.36a8,8,0,0,1,4.35.37l.51.15.61.23a1.49,1.49,0,0,0,.3.09,4.44,4.44,0,0,1,2.16,1.19,3,3,0,0,1,.85,1.8c0,.27.12.53.17.8.09.47.17.93.23,1.4.1.69.19,1.39.26,2.09,0,.26,0,.52,0,.78s0,.4.06.59a4.81,4.81,0,0,1,.07.53,6.31,6.31,0,0,0,.35,1.29,2.46,2.46,0,0,0,.72,1.22,1.59,1.59,0,0,1,.27.39.12.12,0,0,1-.11.2,1.23,1.23,0,0,1-.38,0s-.09-.05-.13-.06h-.21a1.27,1.27,0,0,0,0,.2c.06.14.13.27.2.41s0,.26-.16.28h0a2.79,2.79,0,0,0-1.31.25,2.33,2.33,0,0,1-.38.08.17.17,0,0,0-.16.19,17.6,17.6,0,0,0,.3,3.9,1.43,1.43,0,0,1-.11.87.44.44,0,0,1-.2.18.69.69,0,0,0-.21,1,1.88,1.88,0,0,1,.12.18.31.31,0,0,1-.06.37c-.1.1-.18.23-.28.34S322,92,322,92c-.3,0-.61,0-.91,0a1.42,1.42,0,0,1-.41-.08c-.13,0-.14-.1-.06-.21a3.11,3.11,0,0,0,.25-.38,2.65,2.65,0,0,0,.11-.3.77.77,0,0,1,.12-.26,2.2,2.2,0,0,0,.59-1.54c0-.69,0-1.37,0-2s-.21-1.39-.34-2.08a2.24,2.24,0,0,0-.23-.53,2,2,0,0,1-.12-.34,3.14,3.14,0,0,0-.69-1.36c-.24-.32-.51-.61-.75-.92s-.46-.68-.69-1c-.06-.09-.11-.19-.17-.27s-.16-.1-.21,0a3,3,0,0,0-.24.69,5.16,5.16,0,0,0,.26,2.49,1.38,1.38,0,0,1-.11,1.19c-.28.52-.56,1-.83,1.56a13.62,13.62,0,0,0-1.1,2.75,2,2,0,0,1-.13.34.8.8,0,0,1-.52.48c-.4.13-.48.26-.45.68a1,1,0,0,0,0,.23.55.55,0,0,1-.17.54.74.74,0,0,0-.19.27.35.35,0,0,1-.32.21c-.37,0-.74,0-1.11,0-.14,0-.16-.09-.08-.22l1.05-1.7a4.71,4.71,0,0,0,.6-1.13.6.6,0,0,1,.08-.16,8.2,8.2,0,0,0,.94-2,4.41,4.41,0,0,0,.31-1.87c0-.5,0-1-.08-1.51a5.76,5.76,0,0,0-.19-.68c-.13-.55-.24-1.1-.37-1.64a4.54,4.54,0,0,0-.23-.74,5.08,5.08,0,0,1-.41-1.19,1,1,0,0,0-.13-.32c-.14-.26-.29-.51-.44-.76s-.17-.2-.34-.09a5.48,5.48,0,0,0-.46.34,4,4,0,0,1-1.71.85c-.64.15-1.3.24-2,.33s-1.22.12-1.83.21c-.84.11-1.67.25-2.5.37l-1.38.2a.35.35,0,0,0-.31.26c-.11.3-.22.6-.3.91a23,23,0,0,1-.78,2.57,3.36,3.36,0,0,0-.24,1.13,1.27,1.27,0,0,1-.13.58,6.18,6.18,0,0,0-.45,1.75,9.64,9.64,0,0,0,0,1.86,3.27,3.27,0,0,1-.05.53.46.46,0,0,1-.31.37,1.48,1.48,0,0,0-.66.6.44.44,0,0,0,0,.32.47.47,0,0,1-.13.51,2.23,2.23,0,0,0-.27.41.25.25,0,0,1-.26.16c-.18,0-.36,0-.53,0Zm1.33-10-.07,0c-.44.33-.9.63-1.31,1a1.67,1.67,0,0,0-.55,1.73,12.91,12.91,0,0,0,.45,1.37,1.14,1.14,0,0,1,.05.75.52.52,0,0,0,.49.69.35.35,0,0,1,.35.28.64.64,0,0,0,.1.18s.11.08.14.06a.18.18,0,0,0,.11-.14c.05-.43.1-.86.11-1.29a25.4,25.4,0,0,1,.15-2.62c.06-.57,0-1.14.05-1.71A1.34,1.34,0,0,0,301.26,82.32Zm20.1-3.8h-.09l-.06,0a.59.59,0,0,0-.26.69,3.32,3.32,0,0,1,0,1.09.22.22,0,0,0,0,.16.18.18,0,0,0,.13.08s.08-.06.1-.1a1.17,1.17,0,0,0,.05-.27c0-.31,0-.63,0-.94S321.34,78.76,321.36,78.52Z"/><path class="cls-1" d="M286.61,91.37l-.14,0c-.07.22-.18.44.08.64a2.36,2.36,0,0,0-1.27.16,4.48,4.48,0,0,1-.44-.22c-.19-.12-.14-.35-.23-.52l0,0c0,.07-.07.17-.17.1a.16.16,0,0,1,0-.25c.22-.23.09-.51.14-.75l-1.29-.07a1.74,1.74,0,0,0,0,.85c.05.17.08.36.14.53a.24.24,0,0,0,.15.11c.24,0,.47.06.7.08s.2,0,.3,0a.28.28,0,0,1,.27.16,4.49,4.49,0,0,0,.38.51s0,0,.05.1a1.46,1.46,0,0,1-.21,0,1,1,0,0,0-.71.06.79.79,0,0,1-.87-.1,1.34,1.34,0,0,1-.59-1.06c0-.41-.09-.82-.14-1.23a.22.22,0,0,0-.12-.13c-.27-.12-.55-.21-.81-.35-.41-.23-.82-.48-1.21-.74a4.75,4.75,0,0,1-.4-.38c-.24-.21-.5-.4-.74-.6-.09-.08-.16-.16-.32-.13s-.21-.13-.17-.26a.52.52,0,0,0,0-.17l.41-.08c-.08-.27-.18-.53,0-.77,0,0,.09,0,.16,0-.08.22-.11.41.05.55a2.28,2.28,0,0,1,0-.45.32.32,0,0,1,.38-.25,1,1,0,0,0,.46-.06c.51-.21,1-.45,1.53-.66a5,5,0,0,1,1.36-.39s.09,0,.13,0l.36-.1a3.17,3.17,0,0,1,1.14-.18c.15,0,.3,0,.45,0a.2.2,0,0,0,.16-.1,1.1,1.1,0,0,0,0-.92,1.27,1.27,0,0,1-.05-.43c0-.21,0-.42,0-.64a4.75,4.75,0,0,0,.05-.53,3.21,3.21,0,0,1,.31-1.47.93.93,0,0,1,1.34-.49,1,1,0,0,1,.57.82,1.9,1.9,0,0,0,.49,1.14q.27.23.54.42c.09.07.18.12.14.24a.32.32,0,0,1-.34.16,4.72,4.72,0,0,1-.54-.13c-.22-.1-.42-.23-.63-.35h0l-.2-.08a.9.9,0,0,0-.06.22,7.48,7.48,0,0,0,0,1,1.72,1.72,0,0,0,.21.6c.18.34.38.67.58,1a4.13,4.13,0,0,1,.57,1.47,2.71,2.71,0,0,1-.06,1.06,2.6,2.6,0,0,1-.35.8,1.83,1.83,0,0,1-.95.71c-.7.22-1.41.42-2.12.63l-.14,0c0,.29.08.57.14.85a.19.19,0,0,0,.16.11,3.34,3.34,0,0,0,1-.1C286.37,91.25,286.51,91.21,286.61,91.37Zm-6.69-4.49,0,.05.36-.19v0Z"/><path class="cls-1" d="M279.92,86.88l.38-.17v0l-.36.19Z"/><path class="cls-1" d="M168.25,34.24H123.53V25.51h-7.42v0l-7.76-7.76-7.75,7.76v0H33.89v0l-7.76-7.76-7.75,7.76v0H10.62V91.1h16V77a4.26,4.26,0,1,1,8.51,0V91.1l36.82.22V77.2a4.26,4.26,0,0,1,8.51,0V91.32l28.7-.22h61.49v-45h7.19ZM18.08,84.29H14.2V78.68h3.88Zm0-6.26H14.2V72.72h3.88Zm4.64,6.26H18.85V78.68h3.87Zm0-6.26H18.85V72.72h3.87Zm3-41.43H21.87V31h3.88Zm0-6.26H21.87V25.2h3.88Zm.76-5.14h3.88v5.14H26.51Zm0,11.4V31h3.88v5.6Zm4.12,26H26.76V57h3.87Zm0-6.26H26.76V51.22h3.87ZM54,51.22h3.88v5.14H54Zm-4.64,0H53.2v5.14H49.32Zm-14,11.4H31.4V57h3.87Zm0-6.26H31.4V51.22h3.87Zm14,.66H53.2v5.6H49.32Zm4.26,27.44H49.71v-5.6h3.87Zm0-6.26H49.71V72.9h3.87ZM54,57h3.88v5.6H54Zm4.26,27.44H54.35v-5.6h3.87Zm0-6.26H54.35V72.9h3.87ZM75.76,62.62H71.89V57h3.87Zm0-6.26H71.89V51.22h3.87Zm4.64,6.26H76.53V57H80.4Zm0-6.26H76.53V51.22H80.4Zm18.7-5.14H103v5.14H99.1Zm-4.64,0h3.87v5.14H94.46Zm0,5.8h3.87v5.6H94.46Zm4.25,27.44H94.84v-5.6h3.87Zm0-6.26H94.84V72.9h3.87ZM99.1,57H103v5.6H99.1Zm4.26,27.44H99.48v-5.6h3.88Zm0-6.26H99.48V72.9h3.88ZM108,36.6h-3.87V31H108Zm0-6.26h-3.87V25.2H108Zm4.64,6.26h-3.87V31h3.87Zm0-6.26h-3.87V25.2h3.87ZM138,83.91h-3.88V78.3H138Zm0-6.26h-3.88V72.5H138Zm4.64,6.26h-3.88V78.3h3.88Zm0-6.26h-3.88V72.5h3.88Zm15.94-15h-3.87V57h3.87Zm0-6.26h-3.87V51.22h3.87Zm4.64,6.26h-3.87V57h3.87Zm0-6.26h-3.87V51.22h3.87Z"/><rect class="cls-1" x="1.28" y="89.98" width="197.15" height="3.65" rx="1.82"/><path class="cls-1" d="M263.56,93.52l-1.69-.7a82.71,82.71,0,0,0-62.74,0l-1.69.7c-1.15.47-2.32-.59-2.32-2.1h0c0-1-.7-.79,0-1.09h0a63.54,63.54,0,0,1,12.39-5.13,80.32,80.32,0,0,1,35.3-2.4A78.83,78.83,0,0,1,266,90.26l.17.08c.72.3-.33.13-.33,1.08h0C265.88,92.93,264.7,94,263.56,93.52Z"/><path class="cls-1" d="M264.5,86.48l-1.75-.69a89.74,89.74,0,0,0-65,0l-1.75.69V85.16l1.75-.69a89.64,89.64,0,0,1,65,0l1.75.69Z"/><path class="cls-1" d="M264.86,82.32l-1.75-.78a80.54,80.54,0,0,0-65,0l-1.75.78V80.83l1.75-.78a80.54,80.54,0,0,1,65,0l1.75.78Z"/><rect class="cls-1" x="262.8" y="89.98" width="169.74" height="3.65" rx="1.82"/><rect class="cls-1" x="194.77" y="79.5" width="1.77" height="11.04" rx="0.88"/><rect class="cls-1" x="194.72" y="77.45" width="1.98" height="1.98" rx="0.99"/><rect class="cls-1" x="194.96" y="79.43" width="1.5" height="0.36" rx="0.18"/><rect class="cls-1" x="209.05" y="74.58" width="1.77" height="11.04" rx="0.88"/><rect class="cls-1" x="208.99" y="72.53" width="1.98" height="1.98" rx="0.99"/><rect class="cls-1" x="209.23" y="74.51" width="1.5" height="0.36" rx="0.18"/><rect class="cls-1" x="202.25" y="82.14" width="1.15" height="7.21" rx="0.58"/><rect class="cls-1" x="202.21" y="80.8" width="1.29" height="1.29" rx="0.65"/><rect class="cls-1" x="202.37" y="82.1" width="0.98" height="0.24" rx="0.12"/><rect class="cls-1" x="216.5" y="78.27" width="1.15" height="7.21" rx="0.58"/><rect class="cls-1" x="216.46" y="76.93" width="1.29" height="1.29" rx="0.65"/><rect class="cls-1" x="216.62" y="78.22" width="0.98" height="0.24" rx="0.12"/><rect class="cls-1" x="229.83" y="76.97" width="1.15" height="7.21" rx="0.58"/><rect class="cls-1" x="229.8" y="75.63" width="1.29" height="1.29" rx="0.65"/><rect class="cls-1" x="229.95" y="76.92" width="0.98" height="0.24" rx="0.12"/><rect class="cls-1" x="243.6" y="78.15" width="1.15" height="7.21" rx="0.58"/><rect class="cls-1" x="243.57" y="76.81" width="1.29" height="1.29" rx="0.65"/><rect class="cls-1" x="243.72" y="78.1" width="0.98" height="0.24" rx="0.12"/><rect class="cls-1" x="257.74" y="82.23" width="1.15" height="7.21" rx="0.58"/><rect class="cls-1" x="257.7" y="80.89" width="1.29" height="1.29" rx="0.65"/><rect class="cls-1" x="257.86" y="82.19" width="0.98" height="0.24" rx="0.12"/><rect class="cls-1" x="264.41" y="80.13" width="1.77" height="11.04" rx="0.88"/><rect class="cls-1" x="264.26" y="78.08" width="1.98" height="1.98" rx="0.99"/><rect class="cls-1" x="264.5" y="80.06" width="1.5" height="0.36" rx="0.18"/><rect class="cls-1" x="250.01" y="74.58" width="1.77" height="11.04" rx="0.88"/><rect class="cls-1" x="249.86" y="72.53" width="1.98" height="1.98" rx="0.99"/><rect class="cls-1" x="250.09" y="74.51" width="1.5" height="0.36" rx="0.18"/><rect class="cls-1" x="223.36" y="72.32" width="1.77" height="11.04" rx="0.88"/><rect class="cls-1" x="223.31" y="70.27" width="1.98" height="1.98" rx="0.99"/><rect class="cls-1" x="223.54" y="72.25" width="1.5" height="0.36" rx="0.18"/><rect class="cls-1" x="235.95" y="71.84" width="1.77" height="11.04" rx="0.88"/><rect class="cls-1" x="235.89" y="69.79" width="1.98" height="1.98" rx="0.99"/><rect class="cls-1" x="236.13" y="71.77" width="1.5" height="0.36" rx="0.18"/></g></g></svg>