<svg xmlns="http://www.w3.org/2000/svg" viewBox="0 0 346.29 189.33"><defs><style>.cls-1{fill:#fff;}</style></defs><title>Fichier 2</title><g id="Calque_2" data-name="Calque 2"><g id="Calque_1-2" data-name="Calque 1"><polygon class="cls-1" points="26.69 106.6 32.85 100.45 39 106.6 84.27 106.6 90.43 100.45 96.58 106.6 101.11 106.6 101.68 106.6 101.88 106.6 108.56 106.6 98.63 94.29 98 94.29 98 91.2 98.73 91.2 98.73 90.23 93.81 90.23 93.81 91.2 94.54 91.2 94.54 94.29 80.27 94.29 64.02 94.29 59.06 94.29 55.63 94.29 24.45 94.29 14.53 106.6 20.04 106.6 21.55 106.6 21.97 106.6 26.69 106.6"/><rect class="cls-1" x="34.64" y="143.75" width="1.36" height="1.86"/><rect class="cls-1" x="36.27" y="143.75" width="1.36" height="1.86"/><rect class="cls-1" x="34.64" y="145.84" width="1.36" height="1.96"/><rect class="cls-1" x="36.27" y="145.84" width="1.36" height="1.96"/><rect class="cls-1" x="66.53" y="143.75" width="1.36" height="1.86"/><rect class="cls-1" x="68.15" y="143.75" width="1.36" height="1.86"/><rect class="cls-1" x="66.53" y="145.84" width="1.36" height="1.96"/><rect class="cls-1" x="68.15" y="145.84" width="1.36" height="1.96"/><path class="cls-1" d="M1.21,68l-.11-.09L7.85,60l.11.09L6.11,63c.61.66,1.46,1.51,2.56,2.55s2.09,1.92,2.95,2.65L16.15,72q1.63,1.38,3.55,2.7a15.63,15.63,0,0,0,3.72-3.22,17.26,17.26,0,0,0,1.34-1.78,12.11,12.11,0,0,0,.73-1.26l-1.95-3.51.13-.16L27.1,68.5,16.51,80.93l-.1-.09L18.17,78a14.54,14.54,0,0,0-1.62-1.74c-.81-.79-1.66-1.58-2.55-2.39s-1.53-1.38-1.91-1.7L9.44,70c-.58-.49-1.27-1-2-1.65s-1.46-1.13-2.07-1.57-1.11-.78-1.53-1Zm3-2.94L18.83,77.39l.62-.74L4.82,64.33Z"/><path class="cls-1" d="M14.15,53.26l-.09-.1,11-9.67,3.1,3-.17.14-3-1.86c-.62.48-1.3,1-2,1.68a19.23,19.23,0,0,0-3,3.1,43.9,43.9,0,0,0,3.17,4q1.18,1.33,2,2.1c1.15-.89,1.87-1.47,2.17-1.73a28.43,28.43,0,0,0,2.29-2.25L28.6,49.48l.17-.15,3.89,4.39-.17.15-2.13-1.43a24.3,24.3,0,0,0-2.09,1.64,31,31,0,0,0-2.37,2.3,19.72,19.72,0,0,0,2,2.42l2.19,2.37c.59.61,1.11,1.13,1.57,1.54a15.76,15.76,0,0,0,3.66-2.52,24.67,24.67,0,0,0,1.9-1.84l-1.37-3.21L36,55l2.63,3.43L27.46,68.22l-.09-.11,2.15-2.53a15.19,15.19,0,0,0-1-1.42c-.47-.61-1-1.29-1.6-2s-1.11-1.37-1.53-1.87-.78-.93-1.1-1.29L22,56.36c-.3-.33-.72-.79-1.28-1.37s-1.15-1.2-1.77-1.81S17.69,52,17,51.37Zm3.41-2.46L30.22,65.08l.71-.62L18.28,50.18Z"/><path class="cls-1" d="M37.25,34.23l5.21-2.83c1,.73,1.77,1.32,2.41,1.76s1.41,1,2.29,1.55L54,39.15a36.08,36.08,0,0,0,4,2.26c.06-1,.06-2.76,0-5.26l-.07-7.48a46.23,46.23,0,0,0-.34-5.45l5.19-2.81.07.12-3,2.2c.34.73.7,1.45,1.09,2.16s1.3,2.21,2.69,4.42,2.73,4.25,4,6.12a19.3,19.3,0,0,0,2.46,3.19l2.47-.79.06.13-8.32,4.5-.06-.12,2.65-2c-.27-.64-.69-1.49-1.25-2.52-.32-.57-.74-1.31-1.29-2.21s-1.19-1.92-1.92-3.07-1.45-2.2-2.12-3.14a17.33,17.33,0,0,0-1.47-1.87c-.05.81-.06,1.71-.05,2.72l.09,11.34c0,1.85.11,3.15.2,3.9l-.17.09c-.37-.28-1-.71-1.84-1.3s-1.54-1-2-1.37l-7.94-5.14c-1.35-.88-2.45-1.57-3.29-2.07.12.35.44,1.13.95,2.33s1.08,2.5,1.71,3.89,1.18,2.57,1.64,3.54.84,1.72,1.13,2.26c.21.38.53.92,1,1.63l2.55-.8.06.12-6,3.22-.07-.12,2.06-1.69a29,29,0,0,0-1.37-3.6c-.84-2-1.73-4-2.68-6.1s-1.67-3.57-2.15-4.46c-.18-.31-.46-.79-.85-1.43a5.71,5.71,0,0,0-2.21-.82l-2.31.67Zm3.27-1.17L58.11,44.42l0-1.05L41.37,32.6Zm18.11-8.77.07,1.79,9,13.94.88-.47L58.68,24.26Z"/><path class="cls-1" d="M76.65,15.05a12.46,12.46,0,0,1,5.12-.84A10.27,10.27,0,0,1,86,15.39,10.43,10.43,0,0,1,89,17.85a9.73,9.73,0,0,1,1.79,3,9.54,9.54,0,0,1,.6,3.69,10.27,10.27,0,0,1-3.32,7.26A11.66,11.66,0,0,1,84,34.23a11.83,11.83,0,0,1-6.46.67,10.28,10.28,0,0,1-5-2.41,9.55,9.55,0,0,1-3.37-7.79,10.26,10.26,0,0,1,1-3.92,10.67,10.67,0,0,1,2.53-3.39A11.92,11.92,0,0,1,76.65,15.05Zm-.34.7,0-.13A9.45,9.45,0,0,0,73,17.7a10.42,10.42,0,0,0-2.27,3.17,10.09,10.09,0,0,0-.93,3.71,9.11,9.11,0,0,0,.56,3.76,9.23,9.23,0,0,0,2.85,3.91,10.33,10.33,0,0,0,4.67,2.21,10.08,10.08,0,0,0,5.27-.35l0-.14a9.62,9.62,0,0,1-5,.07,9.49,9.49,0,0,1-4.17-2.24,9.7,9.7,0,0,1-2.54-3.74,10.54,10.54,0,0,1-.66-3.58A9.57,9.57,0,0,1,71.33,21a9.31,9.31,0,0,1,1.9-3A10.11,10.11,0,0,1,76.31,15.75Zm.75.18a7.39,7.39,0,0,0-3.32,2.4,7.86,7.86,0,0,0-1.59,4,10.72,10.72,0,0,0,.73,5,10.67,10.67,0,0,0,2.9,4.48,7.83,7.83,0,0,0,3.91,1.91A7.54,7.54,0,0,0,88,29.28,8.15,8.15,0,0,0,88.62,26a11.17,11.17,0,0,0-.73-3.76,13.17,13.17,0,0,0-2.21-4.05,8.55,8.55,0,0,0-2.87-2.12,6.82,6.82,0,0,0-2.88-.64A8.27,8.27,0,0,0,77.06,15.93Zm.47-.77,0,.13a9.08,9.08,0,0,1,2.74-.35,7.84,7.84,0,0,1,3,.68,8,8,0,0,1,2.83,2.17,12.91,12.91,0,0,1,2.27,4,13.38,13.38,0,0,1,.77,3.27,9.47,9.47,0,0,1-.25,3.23,7.43,7.43,0,0,1-1.51,2.92,8.72,8.72,0,0,1-3,2.26l.05.15a9.47,9.47,0,0,0,2.88-1.87,8.61,8.61,0,0,0,2-2.78,9,9,0,0,0,.76-3.56,10.77,10.77,0,0,0-.73-4,11.58,11.58,0,0,0-2.2-3.77,8.77,8.77,0,0,0-6.31-3A9.14,9.14,0,0,0,77.53,15.16Z"/><path class="cls-1" d="M96.88,23.64,95,16.21c-.41-1.65-1-3.58-1.78-5.79l-2.91.25,0-.14,9.77-2.39,0,.13L96.69,9.58c.07.65.18,1.41.34,2.29s.35,1.83.55,2.83.38,1.79.53,2.38l1.36,5.48a5.71,5.71,0,0,0,1.58,3,4.4,4.4,0,0,0,2.52,1.17,8.22,8.22,0,0,0,3-.21,6.32,6.32,0,0,0,3.9-2.4c.8-1.15.94-2.75.44-4.77l-1.41-5.71c-.25-1-.59-2.2-1-3.57s-.76-2.39-1.05-3.09l-3.63.43,0-.13,9.72-2.39,0,.14L110.92,6.1a20.77,20.77,0,0,0,.43,3c.26,1.36.51,2.5.74,3.41l1.6,6.47a8.08,8.08,0,0,1,.27,2.65,4.61,4.61,0,0,1-.68,2.09,6.36,6.36,0,0,1-.88,1.15,6.28,6.28,0,0,1-1.3,1,11.62,11.62,0,0,1-1.84.86,26.18,26.18,0,0,1-2.56.76,15.73,15.73,0,0,1-4.52.51,6,6,0,0,1-3.39-1.15A5.36,5.36,0,0,1,96.88,23.64Zm9,3.62,0-.17a9.57,9.57,0,0,1-3.49.05,5.16,5.16,0,0,1-2.69-1.38,5.89,5.89,0,0,1-1.57-2.91L94.89,9.94l-.94.23,3.31,13.37A4.94,4.94,0,0,0,100,27Q102.06,28,105.88,27.26Zm1.71-.6,0,.17a10.22,10.22,0,0,0,2.61-1.18A5.61,5.61,0,0,0,111.87,24a4.81,4.81,0,0,0,.66-2.17,8.89,8.89,0,0,0-.27-2.72L109.12,6.45l-.94.23,3.13,12.65a6.73,6.73,0,0,1-.19,4.51A5.78,5.78,0,0,1,107.59,26.66Z"/><path class="cls-1" d="M115.5,4.78l0-.13L125.8,3.06l0,.14-3.31,1c0,.9.1,2.1.25,3.6s.31,2.81.48,3.92l.91,5.84a42.17,42.17,0,0,0,.9,4.35,16.3,16.3,0,0,0,4.93,0,17.09,17.09,0,0,0,2.19-.47,12.2,12.2,0,0,0,1.38-.48l.84-3.92.21,0,.12,5.05-16.18,2.48,0-.13,3.19-1a15.15,15.15,0,0,0-.08-2.36c-.09-1.13-.21-2.29-.35-3.48s-.25-2-.32-2.52l-.53-3.42c-.12-.75-.27-1.61-.46-2.58s-.36-1.81-.53-2.54-.32-1.31-.47-1.77Zm4.19-.26,2.93,18.83.95-.14L120.65,4.37Z"/><path class="cls-1" d="M146.14,21l-10.39,1v-.14L139,21c.05-1.15,0-2.53,0-4.15s-.19-3.19-.34-4.73l-.23-2.3a56.8,56.8,0,0,0-1.15-7.57l-3.46-.16V2l10.39-1v.14l-3.39.8c0,.9,0,1.7,0,2.42S140.9,5.94,141,7s.13,2,.22,2.87l.3,3c.05.56.16,1.47.32,2.72s.33,2.33.48,3.19.29,1.52.39,1.95l3.46.15ZM138,2.12l1.85,18.94,1-.09L139,2Z"/><path class="cls-1" d="M145.54.81V.67l7-.19c.48.61,1.09,1.35,1.85,2.21s1.42,1.59,2,2.21l6.37,6.67,2,2c.47.48,1.08,1.05,1.82,1.73,0-.64.06-1.23.06-1.78s0-1.06,0-1.55l-.16-5.93A36.6,36.6,0,0,0,166,.77L162.59.35V.22L170.8,0V.14l-3.34.62a36.6,36.6,0,0,0-.13,4.92l.4,15.05h-.14q-2.17-2.61-4.31-4.87l-8.71-9.14c-1.28-1.29-2.38-2.32-3.28-3.09a32.65,32.65,0,0,0-.1,3.5l.23,8.69a36.65,36.65,0,0,0,.39,4.15l3.52.41v.14l-8.39.22v-.13l3.39-.57a26,26,0,0,0,.16-2.83c0-1.21,0-2.3,0-3.25l-.18-6.73c0-.79-.06-1.58-.11-2.37s-.12-1.55-.21-2.32L148.1,1.25Zm4.14.26,17.17,18,0-1.29L150.84,1Z"/><path class="cls-1" d="M183.51.56l11.3,1.19a14.2,14.2,0,0,1,5.28,1.47,8.87,8.87,0,0,1,4.75,6.11,11.24,11.24,0,0,1,.19,3.56,11,11,0,0,1-1.15,3.93,9.27,9.27,0,0,1-2.41,3,9.47,9.47,0,0,1-3.41,1.76,10.91,10.91,0,0,1-4.11.3L181.3,20.54l0-.13,3.38-.13a29.37,29.37,0,0,0,.78-3.81c.29-1.78.48-3.18.59-4.19l.38-3.58a65.56,65.56,0,0,0,.4-7.14L183.49.69Zm4.1,1-2,18.93,1,.1,2-18.93Zm1.69,6.56-.84,8a32.86,32.86,0,0,0-.19,3.6,8.3,8.3,0,0,0,1.93.81,13,13,0,0,0,2.2.43,8.4,8.4,0,0,0,3.1-.27,8.11,8.11,0,0,0,2.88-1.43,8.28,8.28,0,0,0,2.24-2.68,10.51,10.51,0,0,0,1.15-3.95,10.17,10.17,0,0,0-.33-4.2,7.63,7.63,0,0,0-1.82-3.07,8.8,8.8,0,0,0-2.92-2,12.37,12.37,0,0,0-3.61-.92,11.11,11.11,0,0,0-2.84,0c-.09.35-.2.83-.32,1.47s-.24,1.39-.37,2.25S189.35,7.67,189.3,8.09Zm3.31-6.24,0,.13a17,17,0,0,1,3.54.72,9.93,9.93,0,0,1,2.57,1.21,8.07,8.07,0,0,1,1.71,1.56,7.87,7.87,0,0,1,1.2,2,9.84,9.84,0,0,1,.67,2.44,10.49,10.49,0,0,1,.05,2.75,9.74,9.74,0,0,1-1.94,5.19,8.61,8.61,0,0,1-3.71,2.81,8.49,8.49,0,0,1-3.91.6l-1.05-.1v.13l1,.11a10,10,0,0,0,5.32-.76,8.49,8.49,0,0,0,3.69-3.16,10.34,10.34,0,0,0,1.64-4.65A10,10,0,0,0,203,8.65a9.7,9.7,0,0,0-1.7-3.19q-2.31-2.94-7.9-3.53Z"/><path class="cls-1" d="M208.82,3.59l0-.14L223.3,6.14l-.45,4.26-.22,0-.36-3.47q-1.14-.3-2.58-.57a20.58,20.58,0,0,0-4.29-.42,44.21,44.21,0,0,0-1.21,4.94,28.82,28.82,0,0,0-.42,2.87q2.11.52,2.7.63a31.7,31.7,0,0,0,3.2.42l1-2.19.23,0-1.08,5.75-.23-.05-.18-2.54a21.29,21.29,0,0,0-2.58-.62,30.2,30.2,0,0,0-3.29-.45,20,20,0,0,0-.69,3.05c-.22,1.28-.39,2.34-.52,3.17s-.22,1.57-.26,2.18a15.53,15.53,0,0,0,4.25,1.31,24.44,24.44,0,0,0,2.63.37l1.7-3.06.19,0-1.09,4.17-14.63-2.72,0-.14,3.33.14a14.61,14.61,0,0,0,.52-1.65q.3-1.12.63-2.52c.22-.93.4-1.71.54-2.35s.25-1.18.34-1.66l.64-3.4c.08-.43.19-1.05.31-1.85s.23-1.63.34-2.5.19-1.73.25-2.61Zm4.05,1.15-3.52,18.71.94.18L213.8,4.92Z"/><path class="cls-1" d="M222.76,21.71l.19,3.53a8.48,8.48,0,0,0,1.65,1,8.27,8.27,0,0,0,1.72.64,4.92,4.92,0,0,0,1.93.12,4.52,4.52,0,0,0,1.59-.54,3.83,3.83,0,0,0,1.11-1,3.36,3.36,0,0,0,.62-1.24,3.13,3.13,0,0,0-.34-2.45,21.3,21.3,0,0,0-2.42-3.07,22.38,22.38,0,0,1-2.47-3.12,6.7,6.7,0,0,1-.79-2,4.45,4.45,0,0,1,.07-2,4.91,4.91,0,0,1,1.21-2.12,5.09,5.09,0,0,1,2.42-1.4,6.59,6.59,0,0,1,3.41.05c.58.15,1.19.33,1.83.55s1.08.36,1.33.42l.61.14.45.08.37,0L236.18,14l-.17,0-.07-3.28a8.4,8.4,0,0,0-3-1.62,4.87,4.87,0,0,0-2.17-.09,3.59,3.59,0,0,0-1.73.83,3.06,3.06,0,0,0-.94,1.57,2.87,2.87,0,0,0,.23,2,8.79,8.79,0,0,0,1.46,2.07c.66.72,1.37,1.49,2.13,2.3a14.11,14.11,0,0,1,1.75,2.23A5.21,5.21,0,0,1,234.3,24a5.68,5.68,0,0,1-1.23,2.26,5.27,5.27,0,0,1-2.61,1.59,7.55,7.55,0,0,1-4-.08c-.55-.13-1.2-.33-2-.59s-1.33-.43-1.7-.52l-.4-.08-.44-.07-.36-.06,1-4.75ZM233.05,8.54l-.43-.11a6.35,6.35,0,0,0-2.87-.09,4.89,4.89,0,0,0-2.39,1.17A4.37,4.37,0,0,0,226,11.77a4.55,4.55,0,0,0,.68,3.54,14.31,14.31,0,0,0,1,1.36c.31.37.78.92,1.42,1.63s1.14,1.29,1.52,1.74a10.25,10.25,0,0,1,.89,1.23,3.73,3.73,0,0,1-.52,4.79,4.33,4.33,0,0,1-2,1.14,5.21,5.21,0,0,1-2.63,0l0,.15a6.27,6.27,0,0,0,3,.16,5.08,5.08,0,0,0,2.38-1.17A4,4,0,0,0,233,24.37a4.61,4.61,0,0,0,.12-1.79,4.84,4.84,0,0,0-.72-1.87A14.35,14.35,0,0,0,231,19l-2-2.29a15.12,15.12,0,0,1-1.47-1.85,4.31,4.31,0,0,1-.64-3.4,3.92,3.92,0,0,1,2-2.41A5.68,5.68,0,0,1,233,8.67Z"/><path class="cls-1" d="M250.22,13.4l13.84,5.13-1.27,4.18-.18-.07.28-3.59c-.94-.41-1.73-.73-2.38-1a20.48,20.48,0,0,0-4.26-1.15q-.44.86-1.11,2.37c-.45,1-.77,1.8-1,2.35s-.52,1.49-.88,2.66A25.25,25.25,0,0,0,256,25.5a25.63,25.63,0,0,0,2.86.89l1.46-2,.17.06L258.47,30l-.17-.07.24-2.57q-.71-.36-1.38-.63c-.44-.19-.91-.37-1.4-.55s-1.42-.48-2.86-.91q-.59,1.32-1.11,2.73c-.25.66-.58,1.66-1,3s-.71,2.37-.87,3.12L253,35.74l0,.12-9.77-3.62.05-.13,3.29.71c.47-.85,1-2,1.67-3.53s1.17-2.76,1.56-3.8l1.34-3.58c.17-.44.4-1.11.7-2s.57-1.75.84-2.59a20.48,20.48,0,0,0,.56-2.15l-3-1.65Zm3.73,2-6.69,17.86.9.33,6.69-17.86Z"/><path class="cls-1" d="M277.83,24.48A12.24,12.24,0,0,1,282,27.59a10.08,10.08,0,0,1,2,3.84,10.5,10.5,0,0,1,.32,3.9,9.58,9.58,0,0,1-3.21,6.32,10.72,10.72,0,0,1-3.38,2,10.37,10.37,0,0,1-4.21.6A11.83,11.83,0,0,1,268.94,43a11.57,11.57,0,0,1-4.94-4.2,10.09,10.09,0,0,1-1.66-5.22,10,10,0,0,1,.94-4.68,9.8,9.8,0,0,1,2.42-3.12,10.28,10.28,0,0,1,3.51-2,10.76,10.76,0,0,1,4.22-.52A11.91,11.91,0,0,1,277.83,24.48Zm-.75.23.06-.12a9.32,9.32,0,0,0-3.74-.91,10.58,10.58,0,0,0-3.88.55,10.24,10.24,0,0,0-3.35,1.88,9.11,9.11,0,0,0-3.25,7.74,10.25,10.25,0,0,0,1.61,4.88,10.07,10.07,0,0,0,3.89,3.57l.06-.14A9.53,9.53,0,0,1,265,38.59,9.33,9.33,0,0,1,263.74,34a9.5,9.5,0,0,1,1-4.4,10.32,10.32,0,0,1,2.15-2.94,9.53,9.53,0,0,1,3-2,9.22,9.22,0,0,1,3.52-.72A10.2,10.2,0,0,1,277.08,24.71Zm.4.67a7.55,7.55,0,0,0-4.05-.74,8,8,0,0,0-4,1.62,10.68,10.68,0,0,0-3.16,4A10.64,10.64,0,0,0,265,35.41a7.75,7.75,0,0,0,1.29,4.14,7.55,7.55,0,0,0,2.94,2.58,7.75,7.75,0,0,0,3,.78,7.9,7.9,0,0,0,3.06-.47,8.17,8.17,0,0,0,2.83-1.8,10.87,10.87,0,0,0,2.25-3.12,13.07,13.07,0,0,0,1.43-4.38,8.61,8.61,0,0,0-.43-3.53,6.81,6.81,0,0,0-1.52-2.52A8.2,8.2,0,0,0,277.48,25.38Zm.88-.19-.06.12a9.4,9.4,0,0,1,2.14,1.74,7.66,7.66,0,0,1,1.91,6.13A12.93,12.93,0,0,1,281,37.59a13.44,13.44,0,0,1-1.86,2.81,9.54,9.54,0,0,1-2.52,2,7.53,7.53,0,0,1-3.17.92,8.73,8.73,0,0,1-3.72-.6l-.07.13a9.83,9.83,0,0,0,3.35.8,8.75,8.75,0,0,0,3.39-.49,9.3,9.3,0,0,0,3.12-1.9A11.14,11.14,0,0,0,281.92,38a11.53,11.53,0,0,0,1.24-4.18,8.82,8.82,0,0,0-.45-3.67A8.73,8.73,0,0,0,281,27.22,8.92,8.92,0,0,0,278.36,25.19Z"/><path class="cls-1" d="M287.24,43.39l2.37-3.52c.61-.91,1.27-2,2-3.18s1.26-2.18,1.62-2.91l-2.49-2.23.08-.11,7.55,5a7.23,7.23,0,0,1,2.85,3.13,5.66,5.66,0,0,1,.47,3.12,5.53,5.53,0,0,1-.77,2.2,4.51,4.51,0,0,1-1.79,1.61,4.63,4.63,0,0,1-2.2.5,4.53,4.53,0,0,1-2-.49l0,0a4.44,4.44,0,0,1,.74,1.68,10.66,10.66,0,0,1,.16,1.74c0,.71,0,1.67,0,2.89s0,2.17.05,2.87a11.69,11.69,0,0,0,.18,1.78,3.29,3.29,0,0,0,1.26,2.23l-.08.11-2-1.32a4.27,4.27,0,0,1-2-2.78,8.72,8.72,0,0,1-.15-1.43c0-.53,0-1.38,0-2.55s0-2.15-.06-2.93a12.77,12.77,0,0,0-.15-1.72,3.58,3.58,0,0,0-.46-1.26,4,4,0,0,0-1.09-1,7.9,7.9,0,0,0-1.18-.67c-.32.39-.65.83-1,1.33l-1.42,2.11a34,34,0,0,0-2.08,3.72l2.59,2.3-.08.11-8.53-5.66.08-.12,3,1.4c.64-.7,1.45-1.72,2.46-3.06S286.81,44,287.24,43.39Zm6.65-9.27L283.25,50l.83.55,10.63-15.83ZM293,39.7l-1.26,1.87q-.66,1-1.17,1.89a9.57,9.57,0,0,0,1.25.93,5.91,5.91,0,0,0,2.71,1.08,3.57,3.57,0,0,0,2.16-.46,4.8,4.8,0,0,0,1.57-1.51,4.67,4.67,0,0,0,.8-2,5.09,5.09,0,0,0,0-2,5.31,5.31,0,0,0-.75-1.74,4.55,4.55,0,0,0-1.22-1.25,5.23,5.23,0,0,0-1.11-.6c-.37.39-.85,1-1.46,1.77S293.4,39.15,293,39.7Zm.33,8.4.08,5.26a10.08,10.08,0,0,0,.38,2.87,3.17,3.17,0,0,0,1.28,1.65l.08-.11q-.74-.87-.78-3.87l-.08-4.18a8.82,8.82,0,0,0-.25-2.22,3.57,3.57,0,0,0-.95-1.56L293,46A5.1,5.1,0,0,1,293.36,48.1ZM297.16,36l-.07.11a5.68,5.68,0,0,1,2.12,2.51,5.19,5.19,0,0,1,.35,2.8,5.83,5.83,0,0,1-.91,2.4,4.17,4.17,0,0,1-4.22,2l0,.09a4.17,4.17,0,0,0,2.79,0,4.4,4.4,0,0,0,2.32-1.81,5.08,5.08,0,0,0,.86-2.17,4.93,4.93,0,0,0-.16-2.17,6.29,6.29,0,0,0-1-1.92,6.54,6.54,0,0,0-1.56-1.46Z"/><path class="cls-1" d="M318.88,69.3l-2-1.11a23,23,0,0,0-2,1.7c-.77.71-1.43,1.38-2,2-1.06-.41-1.91-.75-2.55-1a20.1,20.1,0,0,1-2.16-1.17,16.18,16.18,0,0,1-2.41-1.85,12.41,12.41,0,0,1-3-3.85,9.43,9.43,0,0,1-1-4,9.33,9.33,0,0,1,.71-3.69,10.34,10.34,0,0,1,1.93-3,11.47,11.47,0,0,1,3.26-2.47,10.54,10.54,0,0,1,3.88-1.1,10,10,0,0,1,4.13.56,11.7,11.7,0,0,1,4,2.45c.2.18.35.33.46.44l.4.4.65.65c.78.81,1.54,1.56,2.28,2.23a21.27,21.27,0,0,0,1.72,1.46l-3,3.51-.14-.13,1.43-2.85c-.19-.3-.45-.66-.77-1.09s-.7-.88-1.13-1.38-.94-1-1.5-1.52a10.49,10.49,0,0,0-3.62-2.25,7.53,7.53,0,0,0-3.53-.39,8.56,8.56,0,0,0-3.14,1.08,10.5,10.5,0,0,0-2.58,2.06,9.15,9.15,0,0,0-2.47,6.6,9,9,0,0,0,.82,3.48,9.18,9.18,0,0,0,2.16,3,10,10,0,0,0,.79.64l.9.63,1.08.71a11.94,11.94,0,0,0,2-1.7,12.17,12.17,0,0,0,1.79-2.37l-2.29-2.75.11-.13L319,69.18Zm1.8-15.12.07-.08a14.55,14.55,0,0,0-1.17-1.18A10.77,10.77,0,0,0,316,50.71a9.57,9.57,0,0,0-3.87-.6,9.9,9.9,0,0,0-3.82,1A11.19,11.19,0,0,0,305,53.63a9.13,9.13,0,0,0-1.94,9.4,11.72,11.72,0,0,0,3.29,4.76,16.29,16.29,0,0,0,1.31,1l.07-.08a14.23,14.23,0,0,1-3.28-4.12,9.09,9.09,0,0,1-1-4,8.72,8.72,0,0,1,.72-3.63A10.24,10.24,0,0,1,306,54a10.85,10.85,0,0,1,3.16-2.41,8.68,8.68,0,0,1,3.57-.93,8.9,8.9,0,0,1,3.8.72,13,13,0,0,1,3.78,2.48ZM315,66.25l-3.66,4,.92.37,3.42-3.7Z"/><path class="cls-1" d="M329,62.38l.11-.09,9.05,11.54L335,76.72l-.13-.17,2-2.84c-.44-.65-1-1.35-1.55-2.12a20.58,20.58,0,0,0-2.94-3.14,42.65,42.65,0,0,0-4.2,2.91A29,29,0,0,0,326,73.23c.83,1.19,1.37,1.94,1.61,2.25a29.26,29.26,0,0,0,2.12,2.41L332,77l.14.18-4.64,3.6-.14-.19,1.56-2a25,25,0,0,0-1.52-2.16,30.5,30.5,0,0,0-2.17-2.5,19.38,19.38,0,0,0-2.54,1.83c-1,.82-1.86,1.49-2.52,2s-1.2,1-1.64,1.46A15.24,15.24,0,0,0,320.81,83a24,24,0,0,0,1.72,2l3.31-1.16L326,84l-3.6,2.4-9.15-11.66.11-.09,2.42,2.3c.34-.18.83-.48,1.48-.9s1.36-.92,2.15-1.47,1.44-1,2-1.4,1-.72,1.37-1L325.44,70c.35-.27.84-.67,1.46-1.19s1.27-1.06,1.92-1.64,1.3-1.18,1.93-1.79Zm2.27,3.53L316.2,77.62l.58.75,15.1-11.71Z"/><path class="cls-1" d="M327.32,85.25l-2.45,2.56a8.47,8.47,0,0,0,.4,1.88,7.78,7.78,0,0,0,.72,1.69,4.71,4.71,0,0,0,1.24,1.47,4.42,4.42,0,0,0,1.48.78,3.82,3.82,0,0,0,1.5.11,3.3,3.3,0,0,0,1.33-.41,3.1,3.1,0,0,0,1.56-1.92,21.6,21.6,0,0,0,.57-3.86,22.06,22.06,0,0,1,.59-3.93,6.71,6.71,0,0,1,.9-1.94,4.67,4.67,0,0,1,1.5-1.31,4.85,4.85,0,0,1,2.38-.59,5.19,5.19,0,0,1,2.68.78A6.6,6.6,0,0,1,344,83.07c.29.52.57,1.08.85,1.69s.48,1,.61,1.26l.32.53c.1.16.18.29.25.38l.22.3-4.07,2.37-.09-.16,2.35-2.3a8.56,8.56,0,0,0-.9-3.31,4.88,4.88,0,0,0-1.44-1.63,3.6,3.6,0,0,0-1.79-.68,3.07,3.07,0,0,0-1.79.41,2.82,2.82,0,0,0-1.29,1.52,9.1,9.1,0,0,0-.51,2.48c-.07,1-.14,2-.21,3.11a13.9,13.9,0,0,1-.43,2.8,5.17,5.17,0,0,1-2.51,3.28,5.53,5.53,0,0,1-2.49.67,5.35,5.35,0,0,1-3-.79,7.47,7.47,0,0,1-2.69-2.94c-.28-.48-.58-1.09-.92-1.82s-.6-1.26-.79-1.59a2.65,2.65,0,0,0-.21-.34l-.26-.37-.2-.3,4.13-2.56ZM344,83.62l-.21-.39a6.44,6.44,0,0,0-1.91-2.13,5,5,0,0,0-2.5-.92,4.45,4.45,0,0,0-2.57.59,4.56,4.56,0,0,0-2.11,2.93,12.08,12.08,0,0,0-.33,1.63c-.07.48-.14,1.19-.22,2.14s-.16,1.72-.22,2.29a9.75,9.75,0,0,1-.29,1.5,3.85,3.85,0,0,1-1.81,2.43,4,4,0,0,1-2,.49,4.4,4.4,0,0,1-2.19-.67,5.09,5.09,0,0,1-1.8-1.9l-.13.08a6.2,6.2,0,0,0,2,2.31,4.87,4.87,0,0,0,2.48.91,3.91,3.91,0,0,0,2.25-.46,4.72,4.72,0,0,0,1.4-1.15,4.87,4.87,0,0,0,.86-1.8,12.62,12.62,0,0,0,.32-2.17c.1-1,.19-2,.28-3a16.66,16.66,0,0,1,.33-2.33,4.35,4.35,0,0,1,2.05-2.8,4,4,0,0,1,3.11-.23,5.54,5.54,0,0,1,3.15,2.76Z"/><path class="cls-1" d="M283.61,146.21a4.54,4.54,0,0,0-4.18,5,4.87,4.87,0,0,0,5.53,3.85,4.54,4.54,0,0,0,4.18-5A4.87,4.87,0,0,0,283.61,146.21Zm1.25,8.24a4.17,4.17,0,0,1-4.73-3.29,3.89,3.89,0,0,1,3.58-4.31,4.16,4.16,0,0,1,4.73,3.29A3.89,3.89,0,0,1,284.86,154.45Z"/><polygon class="cls-1" points="285.17 155.06 284.84 155.1 283.53 146.54 283.87 146.5 285.17 155.06"/><polygon class="cls-1" points="279.85 148.97 280 148.7 288.64 152.46 288.49 152.73 279.85 148.97"/><polygon class="cls-1" points="288.07 148.12 287.85 147.89 280.8 153.33 281.01 153.56 288.07 148.12"/><ellipse class="cls-1" cx="284.3" cy="150.68" rx="1.11" ry="1"/><path class="cls-1" d="M267.48,148.18a3.39,3.39,0,0,0-3.13,3.77,3.66,3.66,0,0,0,4.14,2.88,3.4,3.4,0,0,0,3.13-3.77A3.63,3.63,0,0,0,267.48,148.18Zm.94,6.17a3.13,3.13,0,0,1-3.55-2.47,2.9,2.9,0,0,1,2.68-3.22,3.13,3.13,0,0,1,3.55,2.46A2.91,2.91,0,0,1,268.42,154.35Z"/><polygon class="cls-1" points="268.65 154.81 268.4 154.84 267.42 148.42 267.67 148.39 268.65 154.81"/><polygon class="cls-1" points="264.66 150.24 264.77 150.04 271.25 152.86 271.14 153.06 264.66 150.24"/><polygon class="cls-1" points="270.82 149.61 270.66 149.44 265.37 153.51 265.54 153.68 270.82 149.61"/><ellipse class="cls-1" cx="267.99" cy="151.53" rx="0.83" ry="0.75"/><path class="cls-1" d="M291.81,134.77a3.73,3.73,0,0,0-2.37-1l-4.21-.17-.26-1.71,1-.12-.12-.81-3.35.4.12.82.54-.27.32-.16.27,1.79-20.15-.81a4.63,4.63,0,0,0-3.95,1.82L257.26,138l6.16,0,1,6.82-4.6.23.12.84.26,0,.27,2.38h-.16l.08.53,18.73-.16,11.74-.07-.16-9.74,5.06-.36Zm-29.75,13.32-.84.07-.26-2.38.84-.07Zm1.24,0-.84.07-.27-2.38.84-.07Zm1.19-.11-.84.08-.27-2.38.85-.08Zm1.26-.11-.84.07-.26-2.38.84-.07Zm2.09-2.93-2.6,0-1-6.77,2.61,0Zm12.07-2.68-2.42.05,0-1.64,2.42-.05Zm-2.47-1.84,0-1.64,2.42-.05,0,1.64Zm5.21,1.78-2.41.05-.05-1.64,2.42,0Zm0-1.89-2.41,0-.05-1.64,2.42-.05Z"/><path class="cls-1" d="M224.76,154.91h-.49c-.09,0-.11,0-.07-.12s.09-.13.13-.19.16-.15.19-.24a1.4,1.4,0,0,1,.38-.52c.06-.07.1-.15.15-.22s0-.11,0-.16a.47.47,0,0,1-.17-.2,5.55,5.55,0,0,0-.58-1.17,7.58,7.58,0,0,1-.4-.68.9.9,0,0,1-.12-.48,5.06,5.06,0,0,0-.2-1.6.72.72,0,0,1,0-.41c.06-.15.08-.32.13-.47a1.91,1.91,0,0,1,.47-.75,7.37,7.37,0,0,0,1.09-1.44,1.94,1.94,0,0,1,.15-.24.1.1,0,0,0,0-.16c-.11-.13-.23-.26-.33-.4a1.14,1.14,0,0,1-.23-.84,5.3,5.3,0,0,0,0-.69,1.09,1.09,0,0,1,0-.26,1.51,1.51,0,0,0-.07-.94c-.17-.47-.37-.92-.56-1.38-.29-.71-.53-1.44-.75-2.17a5.46,5.46,0,0,0-.35-.78.57.57,0,0,0-.83-.27,1.91,1.91,0,0,1-1.2.12,1.65,1.65,0,0,0-.7,0,2.62,2.62,0,0,0-.53.2c-.08,0-.12.16-.24.17a.52.52,0,0,1-.34-.1.6.6,0,0,0-.11-.06c-.06,0-.15-.06-.16-.11a1.94,1.94,0,0,1-.17-.71.48.48,0,0,1,.14-.36,7,7,0,0,1,.83-.72c.37-.29.71-.62,1.06-.93a3.27,3.27,0,0,1,.37-.28,1.31,1.31,0,0,0,.39-.48.16.16,0,0,0,0-.11c-.07-.22-.15-.45-.23-.67a.43.43,0,0,1,0,0,.75.75,0,0,0,0-.16.71.71,0,0,1,.15.08c.1.1.2.2.29.31a2.12,2.12,0,0,1,.12.2c0,.05,0,.11.09.13s.09,0,.13,0,0-.07,0-.11a1.55,1.55,0,0,0-.06-.23l-.06-.55a.83.83,0,0,1,0-.15.44.44,0,0,1,.17.07,2.55,2.55,0,0,1,.42.84.82.82,0,0,0,.34.49,5.6,5.6,0,0,0,.66.46c.32.16.53.46.86.61a2.49,2.49,0,0,1,.48.39l1.15.92c.23.2.44.43.68.62.53.41,1.07.82,1.62,1.21a4.45,4.45,0,0,0,.54.25c.22.09.43.19.64.3s.58.33.88.46a1.27,1.27,0,0,0,.52.1,4.2,4.2,0,0,0,1.12-.08l1.41-.24c.41-.08.82-.18,1.22-.25a5.66,5.66,0,0,1,3,.25c.12.05.24.07.36.11l.42.16.21.07a3.08,3.08,0,0,1,1.52.83,2.06,2.06,0,0,1,.59,1.26,5.66,5.66,0,0,0,.13.56c0,.33.11.65.16,1,.06.49.13,1,.18,1.47,0,.18,0,.36,0,.54s0,.28,0,.42.05.25.06.37a4.07,4.07,0,0,0,.24.91,1.68,1.68,0,0,0,.5.85,1,1,0,0,1,.19.27c.05.08,0,.14-.08.15l-.26,0s-.06,0-.09,0H242a.33.33,0,0,0,0,.14,2.44,2.44,0,0,0,.14.28c.06.12,0,.18-.11.2h0a2.07,2.07,0,0,0-.92.17,1.22,1.22,0,0,1-.26.06c-.09,0-.12.05-.12.13a12.56,12.56,0,0,0,.21,2.74,1.06,1.06,0,0,1-.07.61c0,.05-.09.09-.14.12a.48.48,0,0,0-.15.68l.08.12a.2.2,0,0,1,0,.26c-.07.07-.13.16-.2.24s-.11.1-.16.1c-.22,0-.43,0-.65,0a1.37,1.37,0,0,1-.28-.05c-.09,0-.1-.08-.05-.15l.19-.27c0-.06,0-.14.07-.21a.58.58,0,0,1,.08-.18,1.54,1.54,0,0,0,.42-1.08c0-.48,0-1,0-1.44a14.75,14.75,0,0,0-.23-1.46,2,2,0,0,0-.16-.37,2.34,2.34,0,0,1-.09-.24,2.14,2.14,0,0,0-.48-.95c-.17-.22-.36-.42-.52-.65s-.33-.47-.49-.71l-.12-.18c-.05-.07-.11-.07-.15,0a2.3,2.3,0,0,0-.17.48,3.68,3.68,0,0,0,.19,1.74,1,1,0,0,1-.08.84c-.2.36-.39.73-.58,1.09a9,9,0,0,0-.77,1.94,1.57,1.57,0,0,1-.09.23.57.57,0,0,1-.37.34c-.28.09-.33.18-.32.47a1,1,0,0,1,0,.16.36.36,0,0,1-.11.38,1.15,1.15,0,0,0-.14.19.22.22,0,0,1-.22.15q-.39,0-.78,0c-.09,0-.11-.06-.05-.16l.73-1.19a2.94,2.94,0,0,0,.42-.78.67.67,0,0,1,.06-.12,5.51,5.51,0,0,0,.66-1.41,3.06,3.06,0,0,0,.21-1.31c0-.35,0-.7-.05-1.05,0-.17-.1-.32-.13-.49-.09-.38-.17-.76-.26-1.14a2.88,2.88,0,0,0-.17-.52,3.46,3.46,0,0,1-.28-.84.68.68,0,0,0-.09-.22L235,145c-.07-.12-.12-.13-.24,0l-.32.23a2.78,2.78,0,0,1-1.2.6c-.45.1-.91.17-1.37.23s-.86.09-1.29.15c-.58.07-1.17.17-1.75.26l-1,.14a.26.26,0,0,0-.23.18c-.07.21-.14.42-.2.64a18.69,18.69,0,0,1-.55,1.8,2.38,2.38,0,0,0-.17.79,1,1,0,0,1-.09.41,4.31,4.31,0,0,0-.32,1.22,6.38,6.38,0,0,0,0,1.31,2.46,2.46,0,0,1,0,.37.34.34,0,0,1-.22.26,1,1,0,0,0-.46.42.33.33,0,0,0,0,.22.34.34,0,0,1-.09.36,1.12,1.12,0,0,0-.19.29c0,.07-.09.12-.19.11h-.37Zm.93-7,0,0a10.6,10.6,0,0,0-.92.7,1.18,1.18,0,0,0-.39,1.22,8.16,8.16,0,0,0,.32.95.88.88,0,0,1,0,.53.36.36,0,0,0,.34.49.24.24,0,0,1,.24.19.83.83,0,0,0,.07.13s.08,0,.1,0a.13.13,0,0,0,.08-.1c0-.3.07-.6.07-.9,0-.62.05-1.23.11-1.84,0-.4,0-.8,0-1.2A.45.45,0,0,0,225.69,147.93Zm14.09-2.66h-.06l0,0a.45.45,0,0,0-.19.49,2.15,2.15,0,0,1,0,.76.14.14,0,0,0,0,.11.13.13,0,0,0,.09.06s.06,0,.07-.07a1.29,1.29,0,0,0,0-.19c0-.22,0-.44,0-.66S239.77,145.44,239.78,145.27Z"/><path class="cls-1" d="M215.43,154.28l-.1,0c-.05.16-.13.31.06.45a1.78,1.78,0,0,0-.9.11l-.31-.15c-.13-.08-.09-.25-.15-.36h0c0,.05,0,.12-.12.07a.11.11,0,0,1,0-.18c.16-.16.06-.35.1-.52l-.9-.05a1.18,1.18,0,0,0,0,.59c0,.13.06.25.1.37a.15.15,0,0,0,.11.08,4.1,4.1,0,0,0,.49.06,1.49,1.49,0,0,0,.21,0,.21.21,0,0,1,.19.11,3.18,3.18,0,0,0,.27.37s0,0,0,.06a.74.74,0,0,1-.15,0,.82.82,0,0,0-.49,0,.58.58,0,0,1-.62-.06,1,1,0,0,1-.41-.75c0-.29-.06-.58-.1-.86,0,0-.05-.08-.08-.09-.19-.09-.39-.15-.57-.25s-.57-.33-.85-.51c-.1-.07-.18-.19-.28-.27l-.51-.42c-.07-.06-.12-.12-.23-.09s-.14-.09-.12-.19,0-.07,0-.12l.29-.05c-.06-.19-.13-.37,0-.54,0,0,.06,0,.11,0-.05.15-.07.29,0,.38a1.62,1.62,0,0,1,0-.31.25.25,0,0,1,.27-.18.68.68,0,0,0,.32,0c.37-.15.72-.32,1.08-.47a4,4,0,0,1,.95-.28s.07,0,.1,0l.25-.07a2.38,2.38,0,0,1,.79-.13l.32,0a.16.16,0,0,0,.11-.07.78.78,0,0,0,0-.65.77.77,0,0,1,0-.3c0-.15,0-.3,0-.45s0-.25,0-.37a2.27,2.27,0,0,1,.21-1,.7.7,0,0,1,1.34.23,1.33,1.33,0,0,0,.35.8c.12.11.25.21.37.3s.13.08.1.16a.21.21,0,0,1-.23.11,2.34,2.34,0,0,1-.38-.09,3.88,3.88,0,0,1-.45-.24,0,0,0,0,1,0,0l-.15,0a.83.83,0,0,0,0,.15,4.8,4.8,0,0,0,0,.66,1.38,1.38,0,0,0,.15.43c.12.24.27.47.4.71a2.72,2.72,0,0,1,.4,1,1.73,1.73,0,0,1,0,.75,1.49,1.49,0,0,1-.25.56,1.28,1.28,0,0,1-.66.5l-1.48.44h-.1c0,.21.05.4.09.6,0,0,.08.07.12.08a3.23,3.23,0,0,0,.69-.07C215.26,154.19,215.35,154.16,215.43,154.28Zm-4.69-3.15,0,0L211,151v0Z"/><path class="cls-1" d="M210.74,151.13,211,151v0l-.25.13Z"/><path class="cls-1" d="M132.46,114.23H101.11v-6.12H95.92v0l-5.44-5.44L85,108.09v0H38.28v0l-5.43-5.44-5.44,5.44v0H22v46H33.18v-9.9a3,3,0,0,1,6,0v9.9l25.8.15v-9.89a3,3,0,1,1,6,0v9.89L91,154.09h43.11V122.56h5ZM27.2,149.31H24.49v-3.93H27.2Zm0-4.39H24.49v-3.71H27.2Zm3.25,4.39H27.74v-3.93h2.71Zm0-4.39H27.74v-3.71h2.71Zm2.12-29H29.86V112h2.71Zm0-4.38H29.86v-3.61h2.71Zm.54-3.61h2.72v3.61H33.11Zm0,8V112h2.72v3.92ZM36,134.12H33.28V130.2H36Zm0-4.39H33.28v-3.6H36Zm16.35-3.6h2.72v3.6H52.35Zm-3.25,0h2.72v3.6H49.1Zm-9.85,8H36.54V130.2h2.71Zm0-4.39H36.54v-3.6h2.71Zm9.85.47h2.72v3.92H49.1Zm3,19.24H49.37v-3.93h2.71Zm0-4.39H49.37v-3.72h2.71Zm.27-14.85h2.72v3.92H52.35Zm3,19.24H52.62v-3.93h2.72Zm0-4.39H52.62v-3.72h2.72Zm12.29-10.93H64.92V130.2h2.71Zm0-4.39H64.92v-3.6h2.71Zm3.26,4.39H68.17V130.2h2.72Zm0-4.39H68.17v-3.6h2.72Zm13.1-3.6h2.72v3.6H84Zm-3.25,0h2.71v3.6H80.74Zm0,4.07h2.71v3.92H80.74Zm3,19.24H81v-3.93h2.71Zm0-4.39H81v-3.72h2.71ZM84,130.2h2.72v3.92H84Zm3,19.24H84.26v-3.93H87Zm0-4.39H84.26v-3.72H87Zm3.22-29.17H87.49V112H90.2Zm0-4.38H87.49v-3.61H90.2Zm3.26,4.38H90.74V112h2.72Zm0-4.38H90.74v-3.61h2.72ZM111.27,149h-2.72v-3.92h2.72Zm0-4.38h-2.72v-3.61h2.72Zm3.25,4.38h-2.71v-3.92h2.71Zm0-4.38h-2.71v-3.61h2.71Zm11.18-10.54H123V130.2h2.72Zm0-4.39H123v-3.6h2.72Zm3.25,4.39h-2.71V130.2H129Zm0-4.39h-2.71v-3.6H129Z"/><rect class="cls-1" x="15.42" y="153.3" width="138.19" height="2.56" rx="1.28"/><path class="cls-1" d="M199.27,155.78l-1.19-.49a58,58,0,0,0-44,0l-1.19.49c-.8.33-1.63-.41-1.63-1.47h0c0-.67-.48-.56,0-.77h0A45,45,0,0,1,160,150a56.45,56.45,0,0,1,24.75-1.68A55.56,55.56,0,0,1,201,153.49l.12.06c.51.21-.22.09-.22.76h0C200.9,155.37,200.07,156.11,199.27,155.78Z"/><path class="cls-1" d="M199.93,150.85l-1.23-.48a62.78,62.78,0,0,0-45.58,0l-1.23.48v-.93l1.23-.48a62.78,62.78,0,0,1,45.58,0l1.23.48Z"/><path class="cls-1" d="M200.18,147.93l-1.22-.54a56.45,56.45,0,0,0-45.59,0l-1.22.54v-1l1.22-.55a56.53,56.53,0,0,1,45.59,0l1.22.55Z"/><rect class="cls-1" x="198.74" y="153.3" width="118.98" height="2.56" rx="1.28"/><path class="cls-1" d="M8.28,189.07l-3.42-6.34a2,2,0,0,1-.42,0H1.6v6.31H0V174.14H4.4a6,6,0,0,1,3.7,1A3.35,3.35,0,0,1,9.47,178v1a3.23,3.23,0,0,1-.8,2.2,4.39,4.39,0,0,1-2.21,1.3l3.59,6.61Zm-1.34-8.28a2.16,2.16,0,0,0,.91-1.87V178a2.22,2.22,0,0,0-.94-1.9,4.25,4.25,0,0,0-2.54-.68H1.6v6H4.42A4.2,4.2,0,0,0,6.94,180.79Z"/><path class="cls-1" d="M23.17,175.57A6.53,6.53,0,0,1,24.62,180v3.29a7.29,7.29,0,0,1-.63,3.09,4.86,4.86,0,0,1-1.93,2.16,6.22,6.22,0,0,1-3.24.79,6.17,6.17,0,0,1-3.24-.79,4.88,4.88,0,0,1-1.94-2.16,7.29,7.29,0,0,1-.62-3.09V180a6.46,6.46,0,0,1,1.46-4.44,5.44,5.44,0,0,1,4.34-1.68A5.42,5.42,0,0,1,23.17,175.57Zm-7.51.91a5.43,5.43,0,0,0-1,3.5v3.35a5.2,5.2,0,0,0,1,3.39A3.81,3.81,0,0,0,18.82,188,3.81,3.81,0,0,0,22,186.72a5.26,5.26,0,0,0,1-3.39V180a5.49,5.49,0,0,0-1-3.49,3.81,3.81,0,0,0-3.17-1.31A3.84,3.84,0,0,0,15.66,176.48Z"/><path class="cls-1" d="M39.28,184.25a5.07,5.07,0,0,1-1.36,3.66,5.37,5.37,0,0,1-4.06,1.42,5.35,5.35,0,0,1-4-1.42,5.07,5.07,0,0,1-1.36-3.66V174.14h1.6v10.13A3.9,3.9,0,0,0,31,187a3.71,3.71,0,0,0,2.87,1,3.73,3.73,0,0,0,2.89-1,3.9,3.9,0,0,0,.93-2.73V174.14h1.6Z"/><path class="cls-1" d="M52.08,187.71v1.36H44V174.14h1.6v13.57Z"/><path class="cls-1" d="M63.9,175.57A6.53,6.53,0,0,1,65.35,180v3.29a7.29,7.29,0,0,1-.63,3.09,4.86,4.86,0,0,1-1.93,2.16,7.06,7.06,0,0,1-6.49,0,4.92,4.92,0,0,1-1.93-2.16,7.29,7.29,0,0,1-.63-3.09V180a6.46,6.46,0,0,1,1.47-4.44,5.44,5.44,0,0,1,4.34-1.68A5.42,5.42,0,0,1,63.9,175.57Zm-7.51.91a5.43,5.43,0,0,0-1,3.5v3.35a5.2,5.2,0,0,0,1,3.39,4.47,4.47,0,0,0,6.32,0,5.26,5.26,0,0,0,1-3.39V180a5.49,5.49,0,0,0-1-3.49,4.49,4.49,0,0,0-6.33,0Z"/><path class="cls-1" d="M77.85,175.46H73.39v13.61h-1.6V175.46H67.36v-1.32H77.85Z"/><path class="cls-1" d="M89.33,175.46H84.87v13.61h-1.6V175.46H78.83v-1.32h10.5Z"/><path class="cls-1" d="M94.05,175.44v5.29h6v1.32h-6v5.72h6.48v1.3H92.45V174.14h8.08v1.3Z"/><path class="cls-1" d="M103.2,187.43l.85-1a13.7,13.7,0,0,0,1.24.84,5.51,5.51,0,0,0,1.29.5,7.45,7.45,0,0,0,1.83.19,5,5,0,0,0,2.08-.39,3,3,0,0,0,1.24-1,2.21,2.21,0,0,0,.41-1.24V185a2.13,2.13,0,0,0-.62-1.62,6.13,6.13,0,0,0-2.15-1.08l-2.14-.71a6.24,6.24,0,0,1-2.64-1.5,3,3,0,0,1-.81-2.1v-.47a3,3,0,0,1,.56-1.73,4,4,0,0,1,1.7-1.36,6.42,6.42,0,0,1,2.73-.52,6.68,6.68,0,0,1,4.91,1.94l-.86.94a6.43,6.43,0,0,0-1.86-1.2,5.8,5.8,0,0,0-2.17-.38,4.67,4.67,0,0,0-1.92.35,2.74,2.74,0,0,0-1.13.88,1.89,1.89,0,0,0-.36,1.08v.44a1.73,1.73,0,0,0,.65,1.33,6,6,0,0,0,2.12,1l1.94.62a7.39,7.39,0,0,1,2.71,1.45,3.16,3.16,0,0,1,.94,2.43v.54a3.4,3.4,0,0,1-.64,2,4.27,4.27,0,0,1-1.85,1.45,6.89,6.89,0,0,1-2.84.54A7.07,7.07,0,0,1,103.2,187.43Z"/><path class="cls-1" d="M133.16,189.07l-1.73-1.79a6.52,6.52,0,0,1-2.09,1.6,6.68,6.68,0,0,1-2.65.45,6.08,6.08,0,0,1-2.49-.49,4,4,0,0,1-1.67-1.39,3.66,3.66,0,0,1-.6-2.09v-1a3.35,3.35,0,0,1,.73-2.21,6,6,0,0,1,2.28-1.57A11,11,0,0,1,123.5,179a2.7,2.7,0,0,1-.39-1.48v-.67a2.55,2.55,0,0,1,1.07-2.12,4.61,4.61,0,0,1,2.87-.82,5.05,5.05,0,0,1,2,.38,3,3,0,0,1,1.31,1.05,2.51,2.51,0,0,1,.45,1.45v.62a2.71,2.71,0,0,1-.79,2A7.94,7.94,0,0,1,127.2,181l4.06,4.19,2.17-4.4,1.28.56-2.45,4.86,2.82,2.9Zm-4.31-1.43a4.72,4.72,0,0,0,1.64-1.32l-4.7-4.8a4,4,0,0,0-1.72,1.13,2.89,2.89,0,0,0-.56,1.88v.72a2.52,2.52,0,0,0,.89,2,3.45,3.45,0,0,0,2.31.75A5.15,5.15,0,0,0,128.85,187.64Zm-4.19-10.3a2.21,2.21,0,0,0,.17.89,3,3,0,0,0,.47.73c.2.23.54.6,1,1.11a11.09,11.09,0,0,0,1.81-.82,2.56,2.56,0,0,0,.9-.85,2.16,2.16,0,0,0,.25-1.08v-.47a1.56,1.56,0,0,0-.6-1.28,2.57,2.57,0,0,0-1.66-.5,2.75,2.75,0,0,0-1.74.49,1.6,1.6,0,0,0-.63,1.35Z"/><path class="cls-1" d="M144.46,187.81a5.64,5.64,0,0,1-1.45-4.05v-3.95a6.93,6.93,0,0,1,.67-3.12,4.87,4.87,0,0,1,1.95-2.07,5.89,5.89,0,0,1,3-.74,6.07,6.07,0,0,1,2.38.42,6.68,6.68,0,0,1,1.87,1.18l-.85,1a6.23,6.23,0,0,0-1.51-.93,4.69,4.69,0,0,0-1.84-.33,3.79,3.79,0,0,0-3,1.22,4.94,4.94,0,0,0-1.07,3.37v3.95a4.6,4.6,0,0,0,1,3.18,3.73,3.73,0,0,0,2.93,1.13,5.44,5.44,0,0,0,1.92-.32,6.71,6.71,0,0,0,1.56-.88l.7,1a7.3,7.3,0,0,1-1.84,1,6.36,6.36,0,0,1-2.36.42A5.39,5.39,0,0,1,144.46,187.81Z"/><path class="cls-1" d="M166.91,189.07h-1.6V182h-7.43v7.08h-1.6V174.14h1.6v6.5h7.43v-6.5h1.6Z"/><path class="cls-1" d="M179.15,184.46h-5.82l-1.45,4.61h-1.64l4.88-14.93h2.2l5,14.93h-1.66Zm-5.41-1.32h5l-2.52-7.83Z"/><path class="cls-1" d="M199,174.14v14.93h-1.54V176.55l-4.27,10.37,0,0h-1.82l-4.29-10.56v12.69h-1.47V174.14h2.11l4.61,11.45L197,174.16v0Z"/><path class="cls-1" d="M212.9,182.29a2.72,2.72,0,0,1,.9,2.19v.92a3.06,3.06,0,0,1-1.48,2.68,7.24,7.24,0,0,1-4.06,1h-4V174.14h4.12a6.26,6.26,0,0,1,3.59.92,3,3,0,0,1,1.33,2.64v.94a2.53,2.53,0,0,1-.73,1.88,3.12,3.12,0,0,1-1.81.87h0A3.79,3.79,0,0,1,212.9,182.29Zm-7-6.89v5.5h3.16a2.91,2.91,0,0,0,1.94-.61,2.06,2.06,0,0,0,.72-1.67v-.84a2,2,0,0,0-.88-1.78,4.22,4.22,0,0,0-2.4-.6Zm6.29,9.08a2,2,0,0,0-.84-1.7,3.6,3.6,0,0,0-2.21-.62h-3.24v5.65h2.39a5.5,5.5,0,0,0,2.9-.63,2,2,0,0,0,1-1.84Z"/><path class="cls-1" d="M226.33,189.07l-3.42-6.34a2,2,0,0,1-.42,0h-2.84v6.31h-1.6V174.14h4.39a6,6,0,0,1,3.71,1,3.35,3.35,0,0,1,1.37,2.81v1a3.28,3.28,0,0,1-.8,2.2,4.39,4.39,0,0,1-2.21,1.3l3.59,6.61ZM225,180.79a2.16,2.16,0,0,0,.91-1.87V178a2.22,2.22,0,0,0-.94-1.9,4.25,4.25,0,0,0-2.54-.68h-2.77v6h2.82A4.2,4.2,0,0,0,225,180.79Z"/><path class="cls-1" d="M233.67,175.44v5.29h6v1.32h-6v5.72h6.48v1.3h-8.08V174.14h8.08v1.3Z"/><path class="cls-1" d="M242.82,187.43l.85-1a13.7,13.7,0,0,0,1.24.84,5.51,5.51,0,0,0,1.29.5A7.42,7.42,0,0,0,248,188a5,5,0,0,0,2.09-.39,3,3,0,0,0,1.24-1,2.21,2.21,0,0,0,.41-1.24V185a2.13,2.13,0,0,0-.62-1.62,6.13,6.13,0,0,0-2.15-1.08l-2.14-.71a6.24,6.24,0,0,1-2.64-1.5,3,3,0,0,1-.81-2.1v-.47a3,3,0,0,1,.56-1.73,4,4,0,0,1,1.7-1.36,6.42,6.42,0,0,1,2.73-.52,6.65,6.65,0,0,1,4.9,1.94l-.85.94a6.34,6.34,0,0,0-1.87-1.2,5.71,5.71,0,0,0-2.16-.38,4.67,4.67,0,0,0-1.92.35,2.74,2.74,0,0,0-1.13.88,1.89,1.89,0,0,0-.36,1.08v.44a1.73,1.73,0,0,0,.65,1.33,6,6,0,0,0,2.12,1l1.94.62a7.39,7.39,0,0,1,2.71,1.45,3.16,3.16,0,0,1,.94,2.43v.54a3.4,3.4,0,0,1-.64,2,4.27,4.27,0,0,1-1.85,1.45,6.9,6.9,0,0,1-2.85.54A7,7,0,0,1,242.82,187.43Z"/><path class="cls-1" d="M271.82,175.75a6,6,0,0,1,1.55,4.36v2.6a6.3,6.3,0,0,1-1.71,4.67,6.58,6.58,0,0,1-4.86,1.69h-3.71V174.14h4.24A5.9,5.9,0,0,1,271.82,175.75Zm-.05,4.32a4.79,4.79,0,0,0-1.15-3.41,4.43,4.43,0,0,0-3.37-1.22h-2.56v12.33h2.11a5,5,0,0,0,3.71-1.28,5.1,5.1,0,0,0,1.26-3.73Z"/><path class="cls-1" d="M276.23,178a5.55,5.55,0,0,0,.75-1.38,6.51,6.51,0,0,0,.3-1.42.89.89,0,0,1-.58-.92,1,1,0,0,1,1-1,1,1,0,0,1,.74.28,1,1,0,0,1,.29.72,6.44,6.44,0,0,1-1.9,4.16Z"/><path class="cls-1" d="M293.13,189.07h-1.6V182H284.1v7.08h-1.6V174.14h1.6v6.5h7.43v-6.5h1.6Z"/><path class="cls-1" d="M307.66,175.57a6.58,6.58,0,0,1,1.45,4.43v3.29a7.29,7.29,0,0,1-.63,3.09,4.86,4.86,0,0,1-1.93,2.16,7.06,7.06,0,0,1-6.49,0,4.86,4.86,0,0,1-1.93-2.16,7.29,7.29,0,0,1-.63-3.09V180a6.51,6.51,0,0,1,1.46-4.44,5.47,5.47,0,0,1,4.35-1.68A5.42,5.42,0,0,1,307.66,175.57Zm-7.51.91a5.43,5.43,0,0,0-1,3.5v3.35a5.2,5.2,0,0,0,1,3.39,4.45,4.45,0,0,0,6.31,0,5.2,5.2,0,0,0,1.05-3.39V180a5.49,5.49,0,0,0-1-3.49,4.48,4.48,0,0,0-6.32,0Zm0-4.11,2.68-2.22h1l2.69,2.22-.59.78-2.59-1.87-2.56,1.87Z"/><path class="cls-1" d="M321.61,175.46h-4.46v13.61h-1.6V175.46h-4.44v-1.32h10.5Z"/><path class="cls-1" d="M326.33,175.44v5.29h6v1.32h-6v5.72h6.48v1.3h-8.08V174.14h8.08v1.3Z"/><path class="cls-1" d="M335.48,187.43l.85-1a13.7,13.7,0,0,0,1.24.84,5.51,5.51,0,0,0,1.29.5,7.42,7.42,0,0,0,1.82.19,5,5,0,0,0,2.09-.39,3,3,0,0,0,1.24-1,2.21,2.21,0,0,0,.41-1.24V185a2.13,2.13,0,0,0-.62-1.62,6.13,6.13,0,0,0-2.15-1.08l-2.14-.71a6.24,6.24,0,0,1-2.64-1.5,3,3,0,0,1-.81-2.1v-.47a3,3,0,0,1,.56-1.73,4,4,0,0,1,1.7-1.36,6.42,6.42,0,0,1,2.73-.52,6.65,6.65,0,0,1,4.9,1.94l-.85.94a6.34,6.34,0,0,0-1.87-1.2,5.71,5.71,0,0,0-2.16-.38,4.67,4.67,0,0,0-1.92.35,2.74,2.74,0,0,0-1.13.88,1.89,1.89,0,0,0-.36,1.08v.44a1.73,1.73,0,0,0,.65,1.33,6,6,0,0,0,2.12,1l1.94.62a7.39,7.39,0,0,1,2.71,1.45,3.16,3.16,0,0,1,.94,2.43v.54a3.4,3.4,0,0,1-.64,2,4.27,4.27,0,0,1-1.85,1.45,6.9,6.9,0,0,1-2.85.54A7,7,0,0,1,335.48,187.43Z"/><rect class="cls-1" x="151.05" y="145.95" width="1.24" height="7.73" rx="0.62"/><rect class="cls-1" x="151.01" y="144.52" width="1.39" height="1.39" rx="0.69"/><rect class="cls-1" x="151.18" y="145.9" width="1.05" height="0.26" rx="0.13"/><rect class="cls-1" x="161.06" y="142.51" width="1.24" height="7.73" rx="0.62"/><rect class="cls-1" x="161.02" y="141.07" width="1.39" height="1.39" rx="0.69"/><rect class="cls-1" x="161.19" y="142.46" width="1.05" height="0.26" rx="0.13"/><rect class="cls-1" x="156.29" y="147.81" width="0.81" height="5.05" rx="0.4"/><rect class="cls-1" x="156.27" y="146.87" width="0.91" height="0.91" rx="0.45"/><rect class="cls-1" x="156.38" y="147.77" width="0.69" height="0.17" rx="0.08"/><rect class="cls-1" x="166.28" y="145.09" width="0.81" height="5.05" rx="0.4"/><rect class="cls-1" x="166.26" y="144.15" width="0.91" height="0.91" rx="0.45"/><rect class="cls-1" x="166.37" y="145.06" width="0.69" height="0.17" rx="0.08"/><rect class="cls-1" x="175.63" y="144.18" width="0.81" height="5.05" rx="0.4"/><rect class="cls-1" x="175.6" y="143.24" width="0.91" height="0.91" rx="0.45"/><rect class="cls-1" x="175.71" y="144.15" width="0.69" height="0.17" rx="0.08"/><rect class="cls-1" x="185.28" y="145.01" width="0.81" height="5.05" rx="0.4"/><rect class="cls-1" x="185.25" y="144.07" width="0.91" height="0.91" rx="0.45"/><rect class="cls-1" x="185.36" y="144.98" width="0.69" height="0.17" rx="0.08"/><rect class="cls-1" x="195.19" y="147.87" width="0.81" height="5.05" rx="0.4"/><rect class="cls-1" x="195.16" y="146.93" width="0.91" height="0.91" rx="0.45"/><rect class="cls-1" x="195.27" y="147.84" width="0.69" height="0.17" rx="0.08"/><rect class="cls-1" x="199.87" y="146.4" width="1.24" height="7.73" rx="0.62"/><rect class="cls-1" x="199.76" y="144.96" width="1.39" height="1.39" rx="0.69"/><rect class="cls-1" x="199.93" y="146.35" width="1.05" height="0.26" rx="0.13"/><rect class="cls-1" x="189.77" y="142.51" width="1.24" height="7.73" rx="0.62"/><rect class="cls-1" x="189.66" y="141.07" width="1.39" height="1.39" rx="0.69"/><rect class="cls-1" x="189.83" y="142.46" width="1.05" height="0.26" rx="0.13"/><rect class="cls-1" x="171.09" y="140.92" width="1.24" height="7.73" rx="0.62"/><rect class="cls-1" x="171.05" y="139.49" width="1.39" height="1.39" rx="0.69"/><rect class="cls-1" x="171.22" y="140.87" width="1.05" height="0.26" rx="0.13"/><rect class="cls-1" x="179.92" y="140.58" width="1.24" height="7.73" rx="0.62"/><rect class="cls-1" x="179.88" y="139.15" width="1.39" height="1.39" rx="0.69"/><rect class="cls-1" x="180.04" y="140.53" width="1.05" height="0.26" rx="0.13"/></g></g></svg>