<svg xmlns="http://www.w3.org/2000/svg" viewBox="0 0 348.96 56.28"><defs><style>.cls-1,.cls-2{fill:#fff;}.cls-2{font-size:17.79px;font-family:Castellar;}</style></defs><title>logo-side</title><g id="Calque_2" data-name="Calque 2"><g id="Calque_1-2" data-name="Calque 1"><polygon class="cls-1" points="10.29 14.28 15.49 8.91 20.7 14.28 58.99 14.28 64.2 8.91 69.41 14.28 73.24 14.28 73.72 14.28 73.88 14.28 79.53 14.28 71.14 3.54 70.61 3.54 70.61 0.85 71.22 0.85 71.22 0 67.06 0 67.06 0.85 67.68 0.85 67.68 3.54 55.6 3.54 41.86 3.54 37.67 3.54 34.77 3.54 8.39 3.54 0 14.28 4.66 14.28 5.94 14.28 6.29 14.28 10.29 14.28"/><rect class="cls-1" x="17.01" y="46.68" width="1.15" height="1.62"/><rect class="cls-1" x="18.39" y="46.68" width="1.15" height="1.62"/><rect class="cls-1" x="17.01" y="48.5" width="1.15" height="1.71"/><rect class="cls-1" x="18.39" y="48.5" width="1.15" height="1.71"/><rect class="cls-1" x="43.98" y="46.68" width="1.15" height="1.62"/><rect class="cls-1" x="45.36" y="46.68" width="1.15" height="1.62"/><rect class="cls-1" x="43.98" y="48.5" width="1.15" height="1.71"/><rect class="cls-1" x="45.36" y="48.5" width="1.15" height="1.71"/><path class="cls-1" d="M99.75,20.93H73.24V15.6h-4.4v0l-4.6-4.75-4.6,4.75v0H20.09v0l-4.6-4.75L10.9,15.58v0H6.29V55.7h9.48V47.07a2.53,2.53,0,1,1,5.05,0V55.7l21.83.13V47.2a2.53,2.53,0,1,1,5.05,0v8.63l17-.13h36.46V28.2h4.26Zm-89,30.6H8.42V48.11h2.3Zm0-3.83H8.42V44.46h2.3Zm2.75,3.83h-2.3V48.11h2.3Zm0-3.83h-2.3V44.46h2.3Zm1.79-25.32H13V19h2.29Zm0-3.83H13V15.4h2.29Zm.46-3.15H18v3.15h-2.3Zm0,7V19H18v3.43Zm2.44,15.9h-2.3V34.86h2.3Zm0-3.82h-2.3V31.31h2.3ZM32,31.31h2.3v3.15H32Zm-2.75,0h2.3v3.15h-2.3Zm-8.33,7h-2.3V34.86h2.3Zm0-3.82h-2.3V31.31h2.3Zm8.33.4h2.3v3.42h-2.3Zm2.53,16.78h-2.3V48.22h2.3Zm0-3.83h-2.3V44.57h2.3Zm.22-13h2.3v3.42H32Zm2.53,16.78h-2.3V48.22h2.3Zm0-3.83h-2.3V44.57h2.3Zm10.4-9.53h-2.3V34.86h2.3Zm0-3.82h-2.3V31.31h2.3Zm2.75,3.82h-2.3V34.86h2.3Zm0-3.82h-2.3V31.31h2.3Zm11.08-3.15h2.3v3.15h-2.3Zm-2.75,0h2.3v3.15H56Zm0,3.55h2.3v3.42H56Zm2.53,16.78h-2.3V48.22h2.3Zm0-3.83h-2.3V44.57h2.3Zm.22-13h2.3v3.42h-2.3Zm2.53,16.78H59V48.22h2.3Zm0-3.83H59V44.57h2.3ZM64,22.38h-2.3V19H64Zm0-3.83h-2.3V15.4H64Zm2.75,3.83h-2.3V19h2.3Zm0-3.83h-2.3V15.4h2.3ZM81.83,51.3h-2.3V47.87h2.3Zm0-3.83h-2.3V44.33h2.3Zm2.75,3.83h-2.3V47.87h2.3Zm0-3.83h-2.3V44.33h2.3ZM94,38.28H91.74V34.86H94Zm0-3.82H91.74V31.31H94Zm2.75,3.82H94.49V34.86h2.29Zm0-3.82H94.49V31.31h2.29Z"/><text class="cls-2" transform="translate(116.14 33.42)">LE MOULIN DES FORGES</text><path class="cls-1" d="M121.44,56.13l-2-3.64H117.6v3.63h-.92v-8.6h2.53a3.45,3.45,0,0,1,2.13.6,1.92,1.92,0,0,1,.79,1.62v.56a1.87,1.87,0,0,1-.46,1.27,2.51,2.51,0,0,1-1.27.75l2.06,3.8Zm-.76-4.76a1.27,1.27,0,0,0,.52-1.08v-.52a1.26,1.26,0,0,0-.54-1.09,2.45,2.45,0,0,0-1.46-.4h-1.6v3.47h1.62A2.48,2.48,0,0,0,120.68,51.37Z"/><path class="cls-1" d="M130,48.36a3.75,3.75,0,0,1,.83,2.55V52.8a4.27,4.27,0,0,1-.36,1.79,2.83,2.83,0,0,1-1.11,1.24,4.09,4.09,0,0,1-3.73,0,2.91,2.91,0,0,1-1.12-1.24,4.27,4.27,0,0,1-.36-1.79V50.91a3.76,3.76,0,0,1,.84-2.56,3.15,3.15,0,0,1,2.5-1A3.12,3.12,0,0,1,130,48.36Zm-4.32.53a3.07,3.07,0,0,0-.61,2v1.93a3,3,0,0,0,.61,2,2.57,2.57,0,0,0,3.63,0,3,3,0,0,0,.6-2V50.9a3.22,3.22,0,0,0-.59-2,2.2,2.2,0,0,0-1.83-.75A2.17,2.17,0,0,0,125.7,48.89Z"/><path class="cls-1" d="M139.29,53.36a2.9,2.9,0,0,1-.78,2.1,3.07,3.07,0,0,1-2.34.82,3,3,0,0,1-2.32-.82,2.9,2.9,0,0,1-.78-2.1V47.53H134v5.84a2.26,2.26,0,0,0,.53,1.57,2.63,2.63,0,0,0,3.32,0,2.26,2.26,0,0,0,.53-1.57V47.53h.92Z"/><path class="cls-1" d="M146.66,55.35v.78H142v-8.6h.92v7.82Z"/><path class="cls-1" d="M153.47,48.36a3.75,3.75,0,0,1,.83,2.55V52.8a4.27,4.27,0,0,1-.36,1.79,2.83,2.83,0,0,1-1.11,1.24,4.09,4.09,0,0,1-3.73,0A2.91,2.91,0,0,1,148,54.59a4.27,4.27,0,0,1-.36-1.79V50.91a3.76,3.76,0,0,1,.84-2.56,3.15,3.15,0,0,1,2.5-1A3.12,3.12,0,0,1,153.47,48.36Zm-4.32.53a3.07,3.07,0,0,0-.61,2v1.93a3,3,0,0,0,.61,2,2.57,2.57,0,0,0,3.63,0,3,3,0,0,0,.6-2V50.9a3.22,3.22,0,0,0-.59-2,2.2,2.2,0,0,0-1.83-.75A2.17,2.17,0,0,0,149.15,48.89Z"/><path class="cls-1" d="M161.5,48.3h-2.56v7.83H158V48.3h-2.55v-.77h6Z"/><path class="cls-1" d="M168.11,48.3h-2.57v7.83h-.92V48.3h-2.55v-.77h6Z"/><path class="cls-1" d="M170.83,48.28v3h3.46v.76h-3.46v3.29h3.73v.75h-4.65v-8.6h4.65v.75Z"/><path class="cls-1" d="M176.1,55.19l.49-.58a7.17,7.17,0,0,0,.71.49,3,3,0,0,0,.74.28,4,4,0,0,0,1.05.12,2.82,2.82,0,0,0,1.2-.23,1.78,1.78,0,0,0,.72-.58,1.23,1.23,0,0,0,.23-.72v-.19a1.24,1.24,0,0,0-.35-.94,3.44,3.44,0,0,0-1.24-.62l-1.23-.41a3.69,3.69,0,0,1-1.53-.87,1.73,1.73,0,0,1-.46-1.21v-.27a1.79,1.79,0,0,1,.32-1,2.36,2.36,0,0,1,1-.78,3.73,3.73,0,0,1,1.57-.3,3.83,3.83,0,0,1,2.83,1.12l-.49.54a3.89,3.89,0,0,0-1.08-.7,3.37,3.37,0,0,0-1.25-.21,2.55,2.55,0,0,0-1.1.2,1.49,1.49,0,0,0-.65.5,1.08,1.08,0,0,0-.21.62v.26a1,1,0,0,0,.37.76,3.67,3.67,0,0,0,1.23.61l1.11.35a4.08,4.08,0,0,1,1.56.84,1.81,1.81,0,0,1,.54,1.4V54a2,2,0,0,1-.36,1.16,2.46,2.46,0,0,1-1.07.83,3.93,3.93,0,0,1-1.64.31A4,4,0,0,1,176.1,55.19Z"/><path class="cls-1" d="M193.34,56.13l-1-1a3.22,3.22,0,0,1-2.73,1.18,3.38,3.38,0,0,1-1.43-.28,2.24,2.24,0,0,1-1-.8,2.09,2.09,0,0,1-.35-1.2v-.56a1.94,1.94,0,0,1,.42-1.27,3.5,3.5,0,0,1,1.31-.9,7.49,7.49,0,0,1-.83-1,1.57,1.57,0,0,1-.22-.86v-.38a1.45,1.45,0,0,1,.62-1.22,2.67,2.67,0,0,1,1.65-.47,2.79,2.79,0,0,1,1.16.22,1.85,1.85,0,0,1,.76.6,1.46,1.46,0,0,1,.25.84v.35a1.61,1.61,0,0,1-.45,1.14,4.85,4.85,0,0,1-1.63.93l2.33,2.4,1.25-2.53.74.32-1.41,2.8,1.62,1.67Zm-2.48-.82a2.81,2.81,0,0,0,.95-.76l-2.71-2.76a2.19,2.19,0,0,0-1,.65,1.67,1.67,0,0,0-.32,1.08v.41a1.43,1.43,0,0,0,.51,1.17,2,2,0,0,0,1.33.43A3,3,0,0,0,190.86,55.31Zm-2.41-5.93a1.32,1.32,0,0,0,.1.51,1.88,1.88,0,0,0,.27.42c.12.13.31.35.59.64a6,6,0,0,0,1.05-.47A1.5,1.5,0,0,0,191,50a1.21,1.21,0,0,0,.15-.62v-.28a.9.9,0,0,0-.35-.73,1.45,1.45,0,0,0-1-.28,1.63,1.63,0,0,0-1,.27.92.92,0,0,0-.37.78Z"/><path class="cls-1" d="M199.85,55.41a3.26,3.26,0,0,1-.83-2.33V50.8a3.92,3.92,0,0,1,.39-1.8,2.78,2.78,0,0,1,1.11-1.19,3.45,3.45,0,0,1,1.74-.42,3.53,3.53,0,0,1,1.37.24,3.91,3.91,0,0,1,1.08.68l-.5.55a3.13,3.13,0,0,0-.86-.53,2.64,2.64,0,0,0-1.06-.19,2.18,2.18,0,0,0-1.74.7,2.82,2.82,0,0,0-.61,1.94v2.27a2.63,2.63,0,0,0,.58,1.83,2.16,2.16,0,0,0,1.69.65,3.15,3.15,0,0,0,1.11-.18,3.43,3.43,0,0,0,.89-.51l.41.59a3.92,3.92,0,0,1-1.06.61,3.7,3.7,0,0,1-1.36.24A3.11,3.11,0,0,1,199.85,55.41Z"/><path class="cls-1" d="M212.78,56.13h-.93V52.06h-4.27v4.07h-.92v-8.6h.92v3.75h4.27V47.53h.93Z"/><path class="cls-1" d="M219.83,53.48h-3.36l-.83,2.65h-.95l2.82-8.6h1.26l2.9,8.6h-1Zm-3.12-.76h2.87l-1.45-4.51Z"/><path class="cls-1" d="M231.26,47.53v8.6h-.88V48.92l-2.46,6v0h-1l-2.47-6.09v7.31h-.85v-8.6h1.22l2.65,6.6,2.67-6.58v0Z"/><path class="cls-1" d="M239.25,52.23a1.55,1.55,0,0,1,.53,1.26V54a1.77,1.77,0,0,1-.86,1.54,4.18,4.18,0,0,1-2.34.57H234.3v-8.6h2.37a3.53,3.53,0,0,1,2.07.54,1.75,1.75,0,0,1,.77,1.52v.54a1.47,1.47,0,0,1-.43,1.08,1.79,1.79,0,0,1-1,.5h0A2.11,2.11,0,0,1,239.25,52.23Zm-4-4v3.17h1.82a1.71,1.71,0,0,0,1.12-.35,1.19,1.19,0,0,0,.41-1v-.47a1.17,1.17,0,0,0-.51-1,2.43,2.43,0,0,0-1.38-.35Zm3.62,5.23a1.16,1.16,0,0,0-.48-1,2.08,2.08,0,0,0-1.27-.36h-1.87v3.26h1.38a3.19,3.19,0,0,0,1.67-.36,1.19,1.19,0,0,0,.57-1.07Z"/><path class="cls-1" d="M247,56.13l-2-3.64h-1.88v3.63h-.92v-8.6h2.53a3.45,3.45,0,0,1,2.13.6,1.92,1.92,0,0,1,.79,1.62v.56a1.87,1.87,0,0,1-.46,1.27,2.51,2.51,0,0,1-1.27.75l2.07,3.8Zm-.77-4.76a1.27,1.27,0,0,0,.52-1.08v-.52a1.26,1.26,0,0,0-.54-1.09,2.45,2.45,0,0,0-1.46-.4h-1.6v3.47h1.62A2.46,2.46,0,0,0,246.22,51.37Z"/><path class="cls-1" d="M251.21,48.28v3h3.47v.76h-3.47v3.29H255v.75h-4.66v-8.6H255v.75Z"/><path class="cls-1" d="M256.48,55.19l.49-.58a6.18,6.18,0,0,0,.72.49,3,3,0,0,0,.74.28,4,4,0,0,0,1.05.12,2.89,2.89,0,0,0,1.2-.23,1.78,1.78,0,0,0,.72-.58,1.31,1.31,0,0,0,.23-.72v-.19a1.21,1.21,0,0,0-.36-.94,3.35,3.35,0,0,0-1.24-.62l-1.23-.41a3.64,3.64,0,0,1-1.52-.87,1.73,1.73,0,0,1-.47-1.21v-.27a1.73,1.73,0,0,1,.33-1,2.3,2.3,0,0,1,1-.78,3.7,3.7,0,0,1,1.57-.3,3.79,3.79,0,0,1,2.82,1.12l-.49.54a4,4,0,0,0-1.07-.7,3.41,3.41,0,0,0-1.25-.21,2.55,2.55,0,0,0-1.1.2,1.52,1.52,0,0,0-.66.5,1.06,1.06,0,0,0-.2.62v.26a1,1,0,0,0,.37.76,3.7,3.7,0,0,0,1.22.61l1.12.35a4.08,4.08,0,0,1,1.56.84,1.81,1.81,0,0,1,.54,1.4V54a2,2,0,0,1-.37,1.16,2.42,2.42,0,0,1-1.06.83,3.93,3.93,0,0,1-1.64.31A4.05,4.05,0,0,1,256.48,55.19Z"/><path class="cls-1" d="M273.18,48.46a3.46,3.46,0,0,1,.89,2.51v1.5a3.6,3.6,0,0,1-1,2.69,3.8,3.8,0,0,1-2.8,1h-2.14v-8.6h2.45A3.4,3.4,0,0,1,273.18,48.46Zm0,2.49a2.75,2.75,0,0,0-.66-2,2.54,2.54,0,0,0-1.94-.71h-1.48v7.1h1.22a2.89,2.89,0,0,0,2.14-.73,3,3,0,0,0,.72-2.15Z"/><path class="cls-1" d="M275.72,49.75a3,3,0,0,0,.43-.8,3.07,3.07,0,0,0,.17-.81.52.52,0,0,1-.33-.53.58.58,0,0,1,.58-.58.57.57,0,0,1,.42.16.57.57,0,0,1,.17.42,3.7,3.7,0,0,1-1.1,2.39Z"/><path class="cls-1" d="M285.45,56.13h-.92V52.06h-4.28v4.07h-.92v-8.6h.92v3.75h4.28V47.53h.92Z"/><path class="cls-1" d="M293.81,48.36a3.75,3.75,0,0,1,.84,2.55V52.8a4.27,4.27,0,0,1-.36,1.79,2.91,2.91,0,0,1-1.12,1.24,3.53,3.53,0,0,1-1.86.45,3.57,3.57,0,0,1-1.87-.45,2.83,2.83,0,0,1-1.11-1.24A4.27,4.27,0,0,1,288,52.8V50.91a3.76,3.76,0,0,1,.84-2.56,3.14,3.14,0,0,1,2.5-1A3.1,3.1,0,0,1,293.81,48.36Zm-4.32.53a3.13,3.13,0,0,0-.6,2v1.93a3,3,0,0,0,.6,2,2.58,2.58,0,0,0,3.64,0,3,3,0,0,0,.6-2V50.9a3.16,3.16,0,0,0-.6-2,2.58,2.58,0,0,0-3.64,0Zm0-2.37L291,45.24h.56l1.55,1.28-.35.45-1.48-1.08L289.82,47Z"/><path class="cls-1" d="M301.85,48.3h-2.57v7.83h-.92V48.3H295.8v-.77h6.05Z"/><path class="cls-1" d="M304.56,48.28v3H308v.76h-3.47v3.29h3.74v.75h-4.66v-8.6h4.66v.75Z"/><path class="cls-1" d="M309.83,55.19l.49-.58a6.18,6.18,0,0,0,.72.49,3,3,0,0,0,.74.28,4,4,0,0,0,1.05.12,2.89,2.89,0,0,0,1.2-.23,1.78,1.78,0,0,0,.72-.58A1.31,1.31,0,0,0,315,54v-.19a1.21,1.21,0,0,0-.36-.94,3.44,3.44,0,0,0-1.24-.62l-1.23-.41a3.64,3.64,0,0,1-1.52-.87,1.73,1.73,0,0,1-.47-1.21v-.27a1.73,1.73,0,0,1,.33-1,2.3,2.3,0,0,1,1-.78,3.7,3.7,0,0,1,1.57-.3,3.79,3.79,0,0,1,2.82,1.12l-.49.54a4,4,0,0,0-1.07-.7,3.45,3.45,0,0,0-1.25-.21,2.62,2.62,0,0,0-1.11.2,1.55,1.55,0,0,0-.65.5,1.08,1.08,0,0,0-.21.62v.26a1,1,0,0,0,.38.76,3.7,3.7,0,0,0,1.22.61l1.12.35a4.08,4.08,0,0,1,1.56.84,1.81,1.81,0,0,1,.54,1.4V54a2,2,0,0,1-.37,1.16,2.42,2.42,0,0,1-1.06.83,3.93,3.93,0,0,1-1.64.31A4.05,4.05,0,0,1,309.83,55.19Z"/></g></g></svg>