<svg xmlns="http://www.w3.org/2000/svg" viewBox="0 0 38.21 79.76"><defs><style>.cls-1{fill:#fff;}</style></defs><title>facebook</title><g id="Calque_2" data-name="Calque 2"><g id="Calque_1-2" data-name="Calque 1"><path class="cls-1" d="M8.2,40.18c-2.35,0-4.35,0-6.34,0C.64,40.23,0,39.9,0,38.53c.05-3.67,0-7.33.09-11a2.14,2.14,0,0,1,1.46-1.46,30.28,30.28,0,0,1,5-.06c1.32.06,1.72-.49,1.72-1.77A104,104,0,0,1,8.54,13.5C9.43,5.67,13.41,1.37,21.3.41,26.54-.23,31.9.09,37.21,0a3.61,3.61,0,0,1,1,.33c0,4.42,0,8.86-.07,13.3,0,.43-1,1.16-1.51,1.19-2.44.14-4.89,0-7.33.09-2.95.07-3.64.8-3.68,3.77,0,1.79.06,3.59,0,5.39-.06,1.32.48,1.78,1.76,1.76,3,0,6,0,9,0,1.39,0,2,.51,1.78,1.92-.46,3.7-.82,7.41-1.38,11.09a2.21,2.21,0,0,1-1.66,1.28,66.2,66.2,0,0,1-7.32,0c-1.79-.1-2.35.51-2.34,2.31.07,11.35,0,22.7,0,34.05,0,3.2,0,3.2-3.18,3.2-3.95,0-7.9-.07-11.85,0-1.81,0-2.33-.61-2.32-2.37.06-11.42,0-22.84,0-34.26Z"/></g></g></svg>