<svg xmlns="http://www.w3.org/2000/svg" viewBox="0 0 86 85.88"><defs><style>.cls-1{fill:#fff;}</style></defs><title>instagram</title><g id="Calque_2" data-name="Calque 2"><g id="Calque_1-2" data-name="Calque 1"><path class="cls-1" d="M86,43.93c-.17,6.16-.21,12.33-.55,18.48-.37,6.56-2.54,12.41-7.54,17a22.93,22.93,0,0,1-13.55,5.86c-4,.4-8.09.55-12.14.59-7.54.07-15.1.07-22.64-.1a57.64,57.64,0,0,1-11-1C8.33,82.43,1.84,75.09.65,64.57A123.75,123.75,0,0,1,0,51.94C0,44.46,0,37,.11,29.49c.05-4.14.15-8.31,1.36-12.34C4.24,7.9,10.53,2.44,19.94.91A96,96,0,0,1,33.83.06c7.48-.12,15,0,22.45.06,4.31.05,8.64.15,12.82,1.47C78.16,4.45,83.47,10.71,85,20c.75,4.65.69,9.45.87,14.18.12,3.26,0,6.53,0,9.79Zm-7.76-1H78c0-4.35.08-8.7,0-13a63.87,63.87,0,0,0-.68-8.86C76.24,15,72.79,10.76,66.71,9a23.57,23.57,0,0,0-5.83-.93Q46.45,7.86,32,7.84a91.09,91.09,0,0,0-9.77.53c-7.49.81-12.51,5.42-13.69,12.87a82.08,82.08,0,0,0-.73,11.53c-.09,7.57,0,15.16.06,22.74a60.7,60.7,0,0,0,.69,9.34c1.05,6.16,4.59,10.33,10.7,12a21.69,21.69,0,0,0,4.86.83c4.4.2,8.82.35,13.23.33,8.24,0,16.48-.11,24.71-.37a16.21,16.21,0,0,0,10-3.53c3.84-3.13,5.37-7.38,5.61-12.1C78,55.7,78.06,49.34,78.24,43Z"/><path class="cls-1" d="M65,42.94A22.06,22.06,0,1,1,43,20.88,22,22,0,0,1,65,42.94Zm-7.8,0a14.27,14.27,0,1,0-14,14.26A14.24,14.24,0,0,0,57.19,42.94Z"/><path class="cls-1" d="M65.81,25.19A5.16,5.16,0,1,1,71,20.09,5.11,5.11,0,0,1,65.81,25.19Z"/></g></g></svg>